<svg width="24" height="24" viewBox="0 0 24 24" fill="none" xmlns="http://www.w3.org/2000/svg">
<path d="M5.55387 22C4.00957 22 2.81872 20.5806 3.02282 18.9832L4.08184 9.69461L4.33966 7.67674L4.08184 7.2059C3.31653 5.80828 3.90435 4.02709 5.33204 3.4176L5.55454 3.32261C9.68536 1.55913 14.3146 1.55913 18.4455 3.32261L18.668 3.4176C20.0956 4.02709 20.6835 5.80828 19.9182 7.2059L19.6603 7.67674L20.9772 18.9832C21.1813 20.5806 19.9904 22 18.4461 22H9.44655" stroke="#1C1C1C" stroke-width="2" stroke-linecap="round" stroke-linejoin="round"/>
<circle cx="8" cy="10" r="1" fill="#1C1C1C" stroke="#1C1C1C" stroke-width="0.2" stroke-linecap="round" stroke-linejoin="round"/>
<circle cx="10" cy="7" r="1" fill="#1C1C1C" stroke="#1C1C1C" stroke-width="0.2" stroke-linecap="round" stroke-linejoin="round"/>
<circle cx="13" cy="10" r="1" fill="#1C1C1C" stroke="#1C1C1C" stroke-width="0.2" stroke-linecap="round" stroke-linejoin="round"/>
<circle cx="16" cy="7" r="1" fill="#1C1C1C" stroke="#1C1C1C" stroke-width="0.2" stroke-linecap="round" stroke-linejoin="round"/>
<circle cx="11" cy="14" r="1" fill="#1C1C1C" stroke="#1C1C1C" stroke-width="0.2" stroke-linecap="round" stroke-linejoin="round"/>
<circle cx="16" cy="12" r="1" fill="#1C1C1C" stroke="#1C1C1C" stroke-width="0.2" stroke-linecap="round" stroke-linejoin="round"/>
</svg>
