<svg width="239" height="92" viewBox="0 0 239 92" fill="none" xmlns="http://www.w3.org/2000/svg">
<path d="M18.0242 91.0793C12.2438 85.8341 0.74733 71.8756 1.00423 58.0028C1.32537 40.6617 16.7398 23.9628 31.1907 23.9628C45.6417 23.9628 48.5318 28.4587 51.1009 25.2474C53.6699 22.0361 53.3488 17.8613 46.9262 12.4021C40.5036 6.94288 34.0809 3.73157 34.7232 2.76817C35.3654 1.80478 50.1375 5.33722 52.7065 9.51193C55.2756 13.6866 54.6333 21.3944 50.1375 22.0367C45.6417 22.6789 39.219 19.1471 35.6866 14.3295C32.1541 9.51193 33.1175 7.26528 31.1907 5.01673C29.264 2.76817 26.3738 2.12654 27.016 1.48428C27.6583 0.842019 38.2556 6.94351 43.7149 11.7605C49.1741 16.5775 53.6699 26.5319 53.9911 25.2474C54.3122 23.9628 60.0926 9.51193 60.7348 9.51193C61.3771 9.51193 62.3405 10.1552 63.9461 9.51193C65.5518 8.86868 62.0194 15.2913 58.4869 21.0717C54.9545 26.852 52.3854 30.7056 50.1375 31.3479C47.8896 31.9901 47.5684 30.0633 50.1375 28.4577C52.7065 26.852 57.2024 26.852 62.9827 30.0633C71.3322 34.7019 72.9378 42.5875 74.2223 42.5875C78.7182 40.6607 89.3155 37.7063 95.7381 41.3029C103.766 45.7988 101.84 51.258 108.262 50.6158C114.685 49.9735 120.465 48.0467 125.924 58.9652C131.384 69.8836 128.815 84.0134 125.924 88.8304C123.034 93.6473 121.429 92.684 118.86 92.684C116.291 92.684 105.693 89.7938 108.262 80.481C110.831 71.1682 125.924 65.3878 129.136 64.1033C132.347 62.8187 130.42 62.8187 130.42 60.892C130.42 58.9652 132.668 59.2863 132.026 46.1199C131.384 32.9535 140.697 23.9638 140.375 25.2474C140.054 26.5309 134.916 35.5226 134.274 41.3029C133.632 47.0833 132.668 58.644 132.989 57.3595C133.311 56.075 135.88 52.8637 138.127 44.1931C140.375 35.5226 143.266 27.4963 146.156 25.2474C149.046 22.9985 149.367 23.3186 148.725 24.283C148.083 25.2474 144.229 30.0633 142.302 37.1282C140.375 44.1931 137.806 52.8637 139.091 52.2214C140.375 51.5791 145.514 48.0467 147.119 46.1199C148.725 44.1931 150.33 35.8437 154.826 28.4577C159.322 21.0717 160.286 19.7904 159.964 22.0367C159.643 24.283 155.963 31.0267 152.578 36.1648C149.194 41.3029 149.688 43.872 150.652 42.5875C151.615 41.3029 158.359 36.486 159.643 34.8803C160.928 33.2747 165.103 26.852 166.869 24.283C168.635 21.7139 171.204 19.7871 171.525 20.1083C171.846 20.4294 167.35 25.8886 165.745 28.1366C164.139 30.3845 162.855 32.6324 163.818 32.6324C164.781 32.6324 169.277 29.7406 172.167 25.8886C175.058 22.0367 177.627 20.1083 177.948 20.1083C178.269 20.1083 174.415 26.2098 175.058 25.8886C175.7 25.5675 185.655 21.0717 186.618 21.3928C187.582 21.7139 183.728 23.9619 183.728 24.283C183.728 24.6041 186.297 25.2464 186.297 25.8886C186.297 26.5309 182.122 25.2464 177.948 27.4943C173.773 29.7422 173.452 29.7422 173.773 30.0633C174.094 30.3845 183.407 29.4211 183.728 30.0633C184.049 30.7056 172.81 31.0267 169.277 32.6324C165.745 34.2381 159.001 38.4128 159.001 38.7339C159.001 39.055 165.745 37.1282 178.269 37.4494C190.793 37.7705 167.993 39.6973 163.497 40.6607C159.001 41.6241 157.074 39.3762 152.9 43.2297C148.725 47.0833 148.083 48.0467 148.725 48.0467C149.367 48.0467 161.891 46.7622 167.35 46.7622C172.81 46.7622 178.911 46.7622 179.232 47.4044C179.553 48.0467 174.736 48.0467 167.993 48.689C161.249 49.3312 151.294 48.689 146.798 50.6158C142.302 52.5425 139.733 54.7905 140.054 55.1116C140.375 55.4327 165.424 56.075 167.35 57.0384C169.277 58.0018 160.286 57.3595 152.578 57.3595C144.871 57.3595 135.237 57.3595 134.916 58.3229C134.595 59.2863 148.404 63.461 148.404 64.1033C148.404 64.7455 141.339 63.461 137.164 62.1765C132.989 60.892 132.588 60.5708 133.11 62.1765C133.632 63.7821 139.733 68.9202 144.229 68.5991C148.725 68.278 149.367 65.0667 154.184 65.7089C159.001 66.3512 157.074 67.9568 159.964 66.0301C162.855 64.1033 164.781 65.7089 166.387 65.7089C167.993 65.7089 167.672 65.0667 168.635 65.0667C169.598 65.0667 167.35 61.8553 170.883 59.9286C174.415 58.0018 175.058 58.9652 177.948 57.3595C180.838 55.7539 178.59 55.4327 178.59 53.1848C178.59 50.9369 182.444 49.3312 182.765 48.0467C183.086 46.7622 182.765 46.1199 182.765 45.4776C182.765 44.8354 182.765 43.5509 183.086 42.9086C183.407 42.2663 183.728 42.5875 183.728 40.0184C183.728 37.4494 185.655 37.4494 184.692 36.486C183.728 35.5226 185.013 34.5592 186.297 33.5958C187.582 32.6324 189.187 30.0633 188.224 30.0633C187.261 30.0633 186.939 29.7412 188.866 27.4943C190.793 25.2474 190.151 23.318 190.472 22.6773C190.793 22.0367 191.114 19.7871 192.399 19.466C193.683 19.1449 194.004 18.5026 191.114 18.5026C188.224 18.5026 186.297 20.4294 185.334 19.466C184.37 18.5026 185.013 17.2181 182.765 17.5392C180.517 17.8604 178.269 18.1815 177.306 17.5392C176.342 16.897 174.736 16.5758 173.773 16.5758C172.81 16.5758 171.204 18.5026 169.277 17.5392C167.35 16.5758 167.35 15.9336 165.424 15.9336C163.497 15.9336 160.928 17.5392 159.001 17.5392C157.074 17.5392 154.826 15.9336 151.936 17.5392C149.046 19.1449 145.835 21.0717 143.587 21.0717C141.339 21.0717 137.485 19.1449 135.558 20.1083C133.632 21.0717 131.063 26.2098 130.42 26.5309C129.778 26.852 127.851 24.283 126.888 28.7788C125.924 33.2747 125.603 35.2014 124.961 34.8803C124.319 34.5592 124.319 37.7705 124.64 40.3395C124.961 42.9086 123.677 42.2663 123.355 42.5875C123.034 42.9086 126.246 45.4776 126.888 52.2214C127.53 58.9652 130.099 60.5708 119.823 65.7089C109.547 70.847 106.426 74.3165 104.088 77.5908C99.2706 84.3345 90.6 86.2613 80.9661 86.9036C73.259 87.4174 64.2673 85.405 60.7348 84.3345" stroke="#42AB44"/>
<path d="M142.303 92.897C146.584 91.6124 156.561 87.4377 162.213 81.0151C169.278 72.9868 178.912 61.4261 198.18 63.3529C217.447 65.2797 223.75 77.2954 229.329 81.0151C233.183 83.5843 237.251 82.7279 238 82.6209" stroke="#42AB44"/>
<path d="M58.8079 90.4364C56.0248 87.011 50.5227 77.5269 50.7796 66.9938C51.1008 53.8274 57.8446 48.6893 63.3038 45.478C68.7631 42.2667 71.9744 41.9456 71.9744 43.2301C71.9744 44.5146 63.3037 45.798 58.8079 52.2206C54.3122 58.6433 52.7065 65.387 54.6333 68.9195C56.5601 72.4519 63.9461 80.8013 73.2589 78.8745C82.5717 76.9478 90.2789 69.5617 90.2789 66.3504C90.2789 63.1391 88.031 59.6067 84.4985 59.6067C80.9661 59.6067 83.214 63.1414 82.8929 66.9938C82.5717 70.8463 86.7464 65.7082 87.0676 65.0659C87.3887 64.4236 88.6732 62.1757 91.2423 62.1757C93.8113 62.1757 95.417 59.6067 95.417 60.8912C95.417 62.1757 92.5268 65.0659 94.4536 67.3138C96.3804 69.5617 99.5917 66.3504 99.9128 68.9195C100.234 71.4885 99.2705 73.0942 95.7381 73.4153C92.2057 73.7364 91.8845 74.6998 92.2057 72.773C92.5268 70.8463 95.0958 68.2772 92.5268 68.5983C89.9577 68.9195 87.7098 73.4153 83.5351 76.6266C79.3604 79.8379 76.1491 80.4802 76.1491 82.0859C76.1491 83.3704 77.6477 88.8296 78.397 91.3987" stroke="#42AB44"/>
<path d="M76.1495 91.0741C75.6143 88.6121 74.4154 83.4954 73.9016 82.7247C73.2593 81.7613 69.7269 82.4035 63.6254 80.1556C57.5239 77.9077 54.9548 74.0541 53.6703 72.7696C52.3858 71.4851 52.3858 73.0907 53.6703 76.302C54.6979 78.8711 59.4507 87.2205 61.6986 91.0741" stroke="#42AB44"/>
</svg>
