<svg width="24" height="24" viewBox="0 0 24 24" fill="none" xmlns="http://www.w3.org/2000/svg">
<path d="M18 4.0004C17.5 2.5004 16.6875 1.0004 15.2656 1.0004C13.6656 1.0004 13 2.5004 12.5 3.5004C11.5 2.5004 10.7 2.0004 9.5 2.0004C8.3 2.0004 7.5 3.0004 7 4.0004" stroke="#1C1C1C" stroke-width="2" stroke-linecap="round" stroke-linejoin="round"/>
<path d="M16 12.0004H3C2.44772 12.0004 2 11.5527 2 11.0004V9.0004C2 8.44811 2.44772 8.0004 3 8.0004H21C21.5523 8.0004 22 8.44811 22 9.0004V11.0004C22 11.5527 21.5523 12.0004 21 12.0004V12.0004C20.4477 12.0004 20 12.4481 20 13.0004V21.0004C20 22.105 19.1046 23.0004 18 23.0004H6C4.89543 23.0004 4 22.105 4 21.0004V15.0004" stroke="#1C1C1C" stroke-width="2" stroke-linecap="round" stroke-linejoin="round"/>
</svg>
