<svg width="25" height="24" viewBox="0 0 25 24" fill="none" xmlns="http://www.w3.org/2000/svg">
<path d="M8.50311 10.5652L4.75155 12.7224L1.09379 10.659L1 6.43852L4.65776 4.18759L8.40932 6.25095L8.50311 10.5652Z" stroke="black" stroke-width="2" stroke-miterlimit="10" stroke-linecap="round" stroke-linejoin="round"/>
<path d="M16.1003 10.4714L12.4425 12.6286L8.69096 10.5652L8.59717 6.25092L12.2549 4.09378L16.0065 6.15713L16.1003 10.4714Z" stroke="black" stroke-width="2" stroke-miterlimit="10" stroke-linecap="round" stroke-linejoin="round"/>
<path d="M23.4152 10.3776L19.6637 12.5348L16.0059 10.4714L15.9121 6.15714L19.5699 4L23.3214 6.06335L23.4152 10.3776Z" stroke="black" stroke-width="2" stroke-miterlimit="10" stroke-linecap="round" stroke-linejoin="round"/>
<path d="M12.442 16.9429L8.78427 19.1L5.03271 17.0366V12.7224L8.69048 10.5652L12.442 12.6286V16.9429Z" stroke="black" stroke-width="2" stroke-miterlimit="10" stroke-linecap="round" stroke-linejoin="round"/>
<path d="M15.5 18.5L12.5362 17.0366L12.4424 12.7224L16.1001 10.5652L19.8517 12.6286L19.9455 16.9429" stroke="black" stroke-width="2" stroke-miterlimit="10" stroke-linecap="round" stroke-linejoin="round"/>
<path d="M18.015 19.5301C18.5756 19.5301 19.03 19.0756 19.03 18.515C19.03 17.9545 18.5756 17.5 18.015 17.5C17.4544 17.5 17 17.9545 17 18.515C17 19.0756 17.4544 19.5301 18.015 19.5301Z" fill="#1C1C1C"/>
</svg>
