<svg width="185" height="40" viewBox="0 0 185 40" fill="none" xmlns="http://www.w3.org/2000/svg">
<path fill-rule="evenodd" clip-rule="evenodd" d="M0.737742 25.3785C1.12913 26.7798 1.67464 28.1429 2.37038 29.442C2.79797 30.2404 3.27713 31.005 3.80335 31.7316C5.03398 27.9268 9.50676 24.5656 16.2948 22.481C20.1497 21.293 20.0038 19.3546 19.3266 15.0192C18.9634 13.1419 18.8166 11.2292 18.889 9.31852C19.0902 7.23827 19.9518 5.27707 21.3478 3.7221C22.5172 2.43073 23.9496 1.42638 25.5336 0.766729C23.9509 0.311504 22.3161 0.0534627 20.6663 -5.29877e-05C17.7144 5.9192 15.5698 7.04905 14.0191 7.86596L14.0132 7.8691L14.0119 7.86979C12.679 8.57808 11.7936 9.0486 10.4813 14.7682C9.26769 20.0574 5.64123 24.0196 0.737742 25.3785ZM17.5979 0.134279C13.8287 0.59037 10.2492 2.11312 7.29224 4.54692C3.72018 7.48697 1.27743 11.5747 0.380008 16.114C-0.0568051 18.3234 -0.114359 20.5733 0.193529 22.7712C4.0826 21.6364 6.84262 18.5604 7.85577 14.1846C9.36646 7.61898 10.6896 6.6185 12.7317 5.54507C13.9603 4.90713 15.4 4.14251 17.5979 0.134279ZM28.905 2.07772C25.9215 2.73671 21.8655 5.36953 21.5666 9.50611C21.4915 11.2193 21.6068 12.9354 21.9104 14.6231C22.5459 18.5938 23.2544 23.1168 17.0449 25.0448C11.9483 26.5863 6.15206 29.7786 5.7724 34.0551C6.73076 35.0254 7.78699 35.8964 8.92503 36.6534C9.86978 34.4459 12.0136 30.3533 15.4094 28.8377C16.3186 28.4338 17.3046 28.2322 18.2993 28.2466C19.294 28.261 20.2738 28.4911 21.1709 28.921C21.8488 29.1516 22.4494 29.5661 22.9056 30.1181C23.3618 30.6702 23.6558 31.3381 23.7547 32.0475C24.0519 34.8419 21.0166 38.039 18.8009 39.9646C19.6538 40.0159 20.5098 40.0125 21.3637 39.9541C23.8315 38.4553 25.6993 36.2785 26.8076 34.1227C30.0332 28.2212 28.7072 24.2636 27.4272 20.4434L27.4223 20.4287C26.7566 18.7629 26.3456 17.0062 26.2033 15.2179C26.0272 8.4849 29.5995 5.08482 31.6211 3.71005C30.7612 3.09537 29.8531 2.54939 28.905 2.07772ZM33.7736 5.48909C32.7502 6.0287 28.6661 8.60539 28.7871 15.1553C28.9195 16.6911 29.2703 18.2001 29.829 19.6366L29.8441 19.6819C31.1648 23.6344 32.8047 28.5423 29.0268 35.4463C28.377 36.6923 27.5696 37.8423 26.6288 38.8698C30.6356 37.462 34.0962 34.8121 36.5017 31.2984L36.4971 31.2977C36.9347 28.2963 35.8407 25.9305 34.6634 23.4189C33.5384 21.4201 32.8762 19.1943 32.7255 16.9054C32.7255 13.1957 35.3307 11.0567 37.3922 10.1176C36.5114 8.56579 35.421 7.12813 34.1416 5.8485C34.0204 5.72705 33.8978 5.60723 33.7736 5.48909ZM38.3527 12.0445C37.1126 12.5929 34.9343 13.9983 34.9343 16.8637C35.0942 18.8287 35.6809 20.735 36.6534 22.4497C37.3841 23.9792 38.1546 25.6209 38.5554 27.4601C39.7498 24.4897 40.2216 21.2561 39.9032 18.0299C39.6981 15.9512 39.1706 13.9335 38.3527 12.0445ZM15.2431 39.4266L15.2427 39.4261C17.7432 37.6127 21.3272 34.1006 21.1397 32.3393C21.1397 32.1726 21.0771 31.7453 20.0978 31.2972C19.535 31.0345 18.9216 30.8984 18.3006 30.8984C17.6796 30.8984 17.0661 31.0345 16.5034 31.2972C14.0146 32.3869 12.1356 35.9169 11.257 37.9879C11.6188 38.1638 11.9867 38.3291 12.3602 38.4836C13.3008 38.8724 14.2647 39.1869 15.2431 39.4266Z" fill="url(#paint0_linear_36101_96801)"/>
<g clip-path="url(#clip0_36101_96801)">
<g clip-path="url(#clip1_36101_96801)">
<path d="M59.82 20.3003C58.78 20.3003 57.8467 20.1403 57.02 19.8203C56.1933 19.5003 55.4933 19.0337 54.92 18.4203C54.3467 17.7937 53.9067 17.0337 53.6 16.1403C53.2933 15.247 53.14 14.2203 53.14 13.0603C53.14 11.9003 53.3133 10.8737 53.66 9.98035C54.02 9.08701 54.5067 8.33368 55.12 7.72035C55.7333 7.09368 56.4533 6.62035 57.28 6.30035C58.1067 5.98035 58.9933 5.82035 59.94 5.82035C60.5133 5.82035 61.0333 5.86701 61.5 5.96035C61.9667 6.04035 62.3733 6.13368 62.72 6.24035C63.0667 6.34701 63.3533 6.46035 63.58 6.58035C63.8067 6.70035 63.9667 6.78701 64.06 6.84035L63.32 8.90035C63 8.70035 62.54 8.51368 61.94 8.34035C61.3533 8.15368 60.7133 8.06035 60.02 8.06035C59.42 8.06035 58.86 8.16701 58.34 8.38035C57.82 8.58035 57.3667 8.88701 56.98 9.30035C56.6067 9.71368 56.3133 10.2337 56.1 10.8603C55.8867 11.487 55.78 12.2137 55.78 13.0403C55.78 13.7737 55.86 14.447 56.02 15.0603C56.1933 15.6737 56.4533 16.207 56.8 16.6603C57.1467 17.1003 57.5867 17.447 58.12 17.7003C58.6533 17.9403 59.2933 18.0603 60.04 18.0603C60.9333 18.0603 61.66 17.9737 62.22 17.8003C62.78 17.6137 63.2133 17.4403 63.52 17.2803L64.2 19.3403C64.04 19.447 63.82 19.5537 63.54 19.6603C63.2733 19.767 62.9533 19.8737 62.58 19.9803C62.2067 20.0737 61.7867 20.147 61.32 20.2003C60.8533 20.267 60.3533 20.3003 59.82 20.3003ZM70.2539 20.2003C69.8672 20.2003 69.4739 20.187 69.0739 20.1603C68.6739 20.1337 68.2872 20.1003 67.9139 20.0603C67.5539 20.0203 67.2139 19.9803 66.8939 19.9403C66.5739 19.887 66.3072 19.8337 66.0939 19.7803V9.68035C66.3072 9.62701 66.5739 9.58035 66.8939 9.54035C67.2139 9.48701 67.5539 9.44701 67.9139 9.42035C68.2872 9.38035 68.6739 9.35368 69.0739 9.34035C69.4739 9.31368 69.8672 9.30035 70.2539 9.30035C71.6672 9.30035 72.7672 9.56035 73.5539 10.0803C74.3406 10.587 74.7339 11.3003 74.7339 12.2203C74.7339 12.7003 74.6139 13.127 74.3739 13.5003C74.1339 13.8737 73.8206 14.1537 73.4339 14.3403C73.9139 14.527 74.3272 14.8203 74.6739 15.2203C75.0206 15.6203 75.1939 16.187 75.1939 16.9203C75.1939 17.9737 74.7806 18.787 73.9539 19.3603C73.1272 19.9203 71.8939 20.2003 70.2539 20.2003ZM70.3139 13.7403C70.9139 13.7403 71.4072 13.6537 71.7939 13.4803C72.1939 13.307 72.3939 12.9603 72.3939 12.4403C72.3939 12.187 72.3272 11.9803 72.1939 11.8203C72.0739 11.6603 71.9072 11.5337 71.6939 11.4403C71.4806 11.347 71.2339 11.287 70.9539 11.2603C70.6739 11.2203 70.3806 11.2003 70.0739 11.2003C69.8339 11.2003 69.5539 11.207 69.2339 11.2203C68.9272 11.2337 68.6806 11.2537 68.4939 11.2803V13.7403H70.3139ZM68.4939 18.2003C68.6539 18.227 68.9139 18.2537 69.2739 18.2803C69.6472 18.2937 69.9939 18.3003 70.3139 18.3003C71.0339 18.3003 71.6272 18.2003 72.0939 18.0003C72.5739 17.8003 72.8139 17.4203 72.8139 16.8603C72.8139 16.3137 72.5939 15.9403 72.1539 15.7403C71.7272 15.527 71.1672 15.4203 70.4739 15.4203H68.4939V18.2003ZM86.7406 14.7603C86.7406 15.587 86.6206 16.3403 86.3806 17.0203C86.1406 17.7003 85.8006 18.2803 85.3606 18.7603C84.9206 19.2403 84.3873 19.6137 83.7606 19.8803C83.1473 20.147 82.4673 20.2803 81.7206 20.2803C80.974 20.2803 80.294 20.147 79.6806 19.8803C79.0673 19.6137 78.5406 19.2403 78.1006 18.7603C77.6606 18.2803 77.314 17.7003 77.0606 17.0203C76.8206 16.3403 76.7006 15.587 76.7006 14.7603C76.7006 13.9337 76.8206 13.187 77.0606 12.5203C77.314 11.8403 77.6606 11.2603 78.1006 10.7803C78.554 10.3003 79.0873 9.93368 79.7006 9.68035C80.314 9.41368 80.9873 9.28035 81.7206 9.28035C82.454 9.28035 83.1273 9.41368 83.7406 9.68035C84.3673 9.93368 84.9006 10.3003 85.3406 10.7803C85.7806 11.2603 86.1206 11.8403 86.3606 12.5203C86.614 13.187 86.7406 13.9337 86.7406 14.7603ZM84.2606 14.7603C84.2606 13.7203 84.034 12.9003 83.5806 12.3003C83.1406 11.687 82.5206 11.3803 81.7206 11.3803C80.9206 11.3803 80.294 11.687 79.8406 12.3003C79.4006 12.9003 79.1806 13.7203 79.1806 14.7603C79.1806 15.8137 79.4006 16.647 79.8406 17.2603C80.294 17.8737 80.9206 18.1803 81.7206 18.1803C82.5206 18.1803 83.1406 17.8737 83.5806 17.2603C84.034 16.647 84.2606 15.8137 84.2606 14.7603ZM88.4538 14.8203C88.4538 13.9003 88.5871 13.0937 88.8538 12.4003C89.1338 11.707 89.5004 11.1337 89.9538 10.6803C90.4071 10.2137 90.9271 9.86701 91.5138 9.64035C92.1004 9.40035 92.7004 9.28035 93.3138 9.28035C94.7538 9.28035 95.8738 9.72701 96.6738 10.6203C97.4871 11.5137 97.8938 12.847 97.8938 14.6203C97.8938 14.7537 97.8871 14.907 97.8738 15.0803C97.8738 15.2403 97.8671 15.387 97.8538 15.5203H90.9538C91.0204 16.3603 91.3138 17.0137 91.8338 17.4803C92.3671 17.9337 93.1338 18.1603 94.1338 18.1603C94.7204 18.1603 95.2538 18.107 95.7338 18.0003C96.2271 17.8937 96.6138 17.7803 96.8938 17.6603L97.2138 19.6403C97.0804 19.707 96.8938 19.7803 96.6538 19.8603C96.4271 19.927 96.1604 19.987 95.8538 20.0403C95.5604 20.107 95.2404 20.1603 94.8938 20.2003C94.5471 20.2403 94.1938 20.2603 93.8338 20.2603C92.9138 20.2603 92.1138 20.127 91.4338 19.8603C90.7538 19.5803 90.1938 19.2003 89.7538 18.7203C89.3138 18.227 88.9871 17.6537 88.7738 17.0003C88.5604 16.3337 88.4538 15.607 88.4538 14.8203ZM95.4738 13.7403C95.4738 13.407 95.4271 13.0937 95.3338 12.8003C95.2404 12.4937 95.1004 12.2337 94.9138 12.0203C94.7404 11.7937 94.5204 11.6203 94.2538 11.5003C94.0004 11.367 93.6938 11.3003 93.3338 11.3003C92.9604 11.3003 92.6338 11.3737 92.3538 11.5203C92.0738 11.6537 91.8338 11.8337 91.6338 12.0603C91.4471 12.287 91.3004 12.547 91.1938 12.8403C91.0871 13.1337 91.0138 13.4337 90.9738 13.7403H95.4738ZM91.2338 7.82035C90.8738 7.82035 90.5604 7.70035 90.2938 7.46035C90.0271 7.22035 89.8938 6.89368 89.8938 6.48035C89.8938 6.06701 90.0271 5.74035 90.2938 5.50035C90.5604 5.24701 90.8738 5.12035 91.2338 5.12035C91.5938 5.12035 91.9071 5.24701 92.1738 5.50035C92.4538 5.74035 92.5938 6.06701 92.5938 6.48035C92.5938 6.89368 92.4538 7.22035 92.1738 7.46035C91.9071 7.70035 91.5938 7.82035 91.2338 7.82035ZM95.3738 7.82035C95.0138 7.82035 94.6938 7.70035 94.4138 7.46035C94.1471 7.22035 94.0138 6.89368 94.0138 6.48035C94.0138 6.06701 94.1471 5.74035 94.4138 5.50035C94.6938 5.24701 95.0138 5.12035 95.3738 5.12035C95.7338 5.12035 96.0471 5.24701 96.3138 5.50035C96.5804 5.74035 96.7138 6.06701 96.7138 6.48035C96.7138 6.89368 96.5804 7.22035 96.3138 7.46035C96.0471 7.70035 95.7338 7.82035 95.3738 7.82035Z" fill="#1C1C1C"/>
<path fill-rule="evenodd" clip-rule="evenodd" d="M107.5 23.5003C107.224 23.5003 107 23.2765 107 23.0003L107 4.00035C107 3.7242 107.224 3.50035 107.5 3.50035V3.50035C107.776 3.50035 108 3.7242 108 4.00035L108 23.0003C108 23.2765 107.776 23.5003 107.5 23.5003V23.5003Z" fill="#7D7E7F"/>
<path d="M121.3 6.02035C123.26 6.02035 124.72 6.39368 125.68 7.14035C126.64 7.88701 127.12 8.94701 127.12 10.3203C127.12 11.107 126.98 11.7803 126.7 12.3403C126.42 12.887 126.02 13.3337 125.5 13.6803C124.98 14.0137 124.34 14.2603 123.58 14.4203C122.833 14.567 121.987 14.6403 121.04 14.6403H119.16V20.0003H117.8V6.40035C118.28 6.26701 118.84 6.17368 119.48 6.12035C120.133 6.05368 120.74 6.02035 121.3 6.02035ZM121.36 7.20035C120.853 7.20035 120.42 7.22035 120.06 7.26035C119.713 7.28701 119.413 7.31368 119.16 7.34035V13.4603H120.88C121.613 13.4603 122.273 13.4203 122.86 13.3403C123.46 13.247 123.967 13.087 124.38 12.8603C124.807 12.6203 125.133 12.2937 125.36 11.8803C125.587 11.467 125.7 10.9403 125.7 10.3003C125.7 9.68701 125.573 9.18035 125.32 8.78035C125.08 8.38035 124.753 8.06701 124.34 7.84035C123.94 7.60035 123.48 7.43368 122.96 7.34035C122.44 7.24701 121.907 7.20035 121.36 7.20035ZM137.981 14.8403C137.981 15.6537 137.861 16.3937 137.621 17.0603C137.394 17.727 137.067 18.2937 136.641 18.7603C136.227 19.227 135.734 19.5937 135.161 19.8603C134.587 20.1137 133.954 20.2403 133.261 20.2403C132.567 20.2403 131.934 20.1137 131.361 19.8603C130.787 19.5937 130.287 19.227 129.861 18.7603C129.447 18.2937 129.121 17.727 128.881 17.0603C128.654 16.3937 128.541 15.6537 128.541 14.8403C128.541 14.027 128.654 13.287 128.881 12.6203C129.121 11.9537 129.447 11.387 129.861 10.9203C130.287 10.4403 130.787 10.0737 131.361 9.82035C131.934 9.55368 132.567 9.42035 133.261 9.42035C133.954 9.42035 134.587 9.55368 135.161 9.82035C135.734 10.0737 136.227 10.4403 136.641 10.9203C137.067 11.387 137.394 11.9537 137.621 12.6203C137.861 13.287 137.981 14.027 137.981 14.8403ZM136.601 14.8403C136.601 13.547 136.301 12.5203 135.701 11.7603C135.101 10.987 134.287 10.6003 133.261 10.6003C132.234 10.6003 131.421 10.987 130.821 11.7603C130.221 12.5203 129.921 13.547 129.921 14.8403C129.921 16.1337 130.221 17.1603 130.821 17.9203C131.421 18.6803 132.234 19.0603 133.261 19.0603C134.287 19.0603 135.101 18.6803 135.701 17.9203C136.301 17.1603 136.601 16.1337 136.601 14.8403ZM148.561 18.9003H149.741V22.8603H148.481V20.0003H140.441V22.8603H139.181V18.9003H140.241C140.681 18.207 141.028 17.5403 141.281 16.9003C141.548 16.2603 141.748 15.607 141.881 14.9403C142.028 14.2737 142.121 13.5737 142.161 12.8403C142.215 12.0937 142.241 11.2803 142.241 10.4003V9.66035H148.561V18.9003ZM143.461 10.7603C143.461 11.4803 143.435 12.187 143.381 12.8803C143.341 13.5737 143.255 14.2603 143.121 14.9403C142.988 15.6203 142.801 16.2937 142.561 16.9603C142.321 17.6137 142.008 18.2603 141.621 18.9003H147.261V10.7603H143.461ZM160.106 20.0003H158.806V15.1803H153.186V20.0003H151.886V9.66035H153.186V14.0803H158.806V9.66035H160.106V20.0003ZM172.166 14.8403C172.166 15.6537 172.046 16.3937 171.806 17.0603C171.579 17.727 171.252 18.2937 170.826 18.7603C170.412 19.227 169.919 19.5937 169.346 19.8603C168.772 20.1137 168.139 20.2403 167.446 20.2403C166.752 20.2403 166.119 20.1137 165.546 19.8603C164.972 19.5937 164.472 19.227 164.046 18.7603C163.632 18.2937 163.306 17.727 163.066 17.0603C162.839 16.3937 162.726 15.6537 162.726 14.8403C162.726 14.027 162.839 13.287 163.066 12.6203C163.306 11.9537 163.632 11.387 164.046 10.9203C164.472 10.4403 164.972 10.0737 165.546 9.82035C166.119 9.55368 166.752 9.42035 167.446 9.42035C168.139 9.42035 168.772 9.55368 169.346 9.82035C169.919 10.0737 170.412 10.4403 170.826 10.9203C171.252 11.387 171.579 11.9537 171.806 12.6203C172.046 13.287 172.166 14.027 172.166 14.8403ZM170.786 14.8403C170.786 13.547 170.486 12.5203 169.886 11.7603C169.286 10.987 168.472 10.6003 167.446 10.6003C166.419 10.6003 165.606 10.987 165.006 11.7603C164.406 12.5203 164.106 13.547 164.106 14.8403C164.106 16.1337 164.406 17.1603 165.006 17.9203C165.606 18.6803 166.419 19.0603 167.446 19.0603C168.472 19.0603 169.286 18.6803 169.886 17.9203C170.486 17.1603 170.786 16.1337 170.786 14.8403ZM174.166 14.8203C174.166 13.9137 174.293 13.127 174.546 12.4603C174.813 11.7803 175.153 11.2137 175.566 10.7603C175.993 10.307 176.473 9.97368 177.006 9.76035C177.553 9.53368 178.113 9.42035 178.686 9.42035C179.953 9.42035 180.96 9.83368 181.706 10.6603C182.466 11.487 182.846 12.7603 182.846 14.4803C182.846 14.587 182.84 14.6937 182.826 14.8003C182.826 14.907 182.82 15.007 182.806 15.1003H175.546C175.586 16.367 175.9 17.3403 176.486 18.0203C177.073 18.7003 178.006 19.0403 179.286 19.0403C179.993 19.0403 180.553 18.9737 180.966 18.8403C181.38 18.707 181.68 18.5937 181.866 18.5003L182.106 19.6203C181.92 19.727 181.566 19.8537 181.046 20.0003C180.54 20.147 179.94 20.2203 179.246 20.2203C178.34 20.2203 177.566 20.087 176.926 19.8203C176.286 19.5537 175.76 19.1803 175.346 18.7003C174.933 18.2203 174.633 17.6537 174.446 17.0003C174.26 16.3337 174.166 15.607 174.166 14.8203ZM181.506 14.0003C181.48 12.9203 181.226 12.0803 180.746 11.4803C180.266 10.8803 179.586 10.5803 178.706 10.5803C178.24 10.5803 177.82 10.6737 177.446 10.8603C177.086 11.047 176.766 11.3003 176.486 11.6203C176.22 11.927 176.006 12.287 175.846 12.7003C175.7 13.1137 175.613 13.547 175.586 14.0003H181.506Z" fill="#1C1C1C"/>
</g>
<path d="M58.4168 34.1424C58.4168 34.5144 58.3628 34.8534 58.2548 35.1594C58.1468 35.4654 57.9938 35.7264 57.7958 35.9424C57.5978 36.1584 57.3578 36.3264 57.0758 36.4464C56.7998 36.5664 56.4938 36.6264 56.1578 36.6264C55.8218 36.6264 55.5158 36.5664 55.2398 36.4464C54.9638 36.3264 54.7268 36.1584 54.5288 35.9424C54.3308 35.7264 54.1748 35.4654 54.0608 35.1594C53.9528 34.8534 53.8988 34.5144 53.8988 34.1424C53.8988 33.7704 53.9528 33.4344 54.0608 33.1344C54.1748 32.8284 54.3308 32.5674 54.5288 32.3514C54.7328 32.1354 54.9728 31.9704 55.2488 31.8564C55.5248 31.7364 55.8278 31.6764 56.1578 31.6764C56.4878 31.6764 56.7908 31.7364 57.0668 31.8564C57.3488 31.9704 57.5888 32.1354 57.7868 32.3514C57.9848 32.5674 58.1378 32.8284 58.2458 33.1344C58.3598 33.4344 58.4168 33.7704 58.4168 34.1424ZM57.3008 34.1424C57.3008 33.6744 57.1988 33.3054 56.9948 33.0354C56.7968 32.7594 56.5178 32.6214 56.1578 32.6214C55.7978 32.6214 55.5158 32.7594 55.3118 33.0354C55.1138 33.3054 55.0148 33.6744 55.0148 34.1424C55.0148 34.6164 55.1138 34.9914 55.3118 35.2674C55.5158 35.5434 55.7978 35.6814 56.1578 35.6814C56.5178 35.6814 56.7968 35.5434 56.9948 35.2674C57.1988 34.9914 57.3008 34.6164 57.3008 34.1424ZM64.0847 32.7024H62.5637V36.5004H61.4747V32.7024H59.9627V31.7934H64.0847V32.7024ZM70.8167 30.2004C71.7227 30.2004 72.4157 30.3654 72.8957 30.6954C73.3817 31.0254 73.6247 31.5414 73.6247 32.2434C73.6247 32.6094 73.5587 32.9244 73.4267 33.1884C73.3007 33.4464 73.1147 33.6594 72.8687 33.8274C72.6227 33.9894 72.3227 34.1094 71.9687 34.1874C71.6147 34.2654 71.2097 34.3044 70.7537 34.3044H70.1867V36.5004H69.0527V30.3534C69.3167 30.2934 69.6077 30.2544 69.9257 30.2364C70.2497 30.2124 70.5467 30.2004 70.8167 30.2004ZM70.8977 31.1814C70.6097 31.1814 70.3727 31.1904 70.1867 31.2084V33.3324H70.7357C71.2817 33.3324 71.7017 33.2574 71.9957 33.1074C72.2897 32.9514 72.4367 32.6604 72.4367 32.2344C72.4367 32.0304 72.3977 31.8594 72.3197 31.7214C72.2417 31.5834 72.1337 31.4754 71.9957 31.3974C71.8577 31.3194 71.6927 31.2654 71.5007 31.2354C71.3147 31.1994 71.1137 31.1814 70.8977 31.1814ZM79.8631 34.1424C79.8631 34.5144 79.8091 34.8534 79.7011 35.1594C79.5931 35.4654 79.4401 35.7264 79.2421 35.9424C79.0441 36.1584 78.8041 36.3264 78.5221 36.4464C78.2461 36.5664 77.9401 36.6264 77.6041 36.6264C77.2681 36.6264 76.9621 36.5664 76.6861 36.4464C76.4101 36.3264 76.1731 36.1584 75.9751 35.9424C75.7771 35.7264 75.6211 35.4654 75.5071 35.1594C75.3991 34.8534 75.3451 34.5144 75.3451 34.1424C75.3451 33.7704 75.3991 33.4344 75.5071 33.1344C75.6211 32.8284 75.7771 32.5674 75.9751 32.3514C76.1791 32.1354 76.4191 31.9704 76.6951 31.8564C76.9711 31.7364 77.2741 31.6764 77.6041 31.6764C77.9341 31.6764 78.2371 31.7364 78.5131 31.8564C78.7951 31.9704 79.0351 32.1354 79.2331 32.3514C79.4311 32.5674 79.5841 32.8284 79.6921 33.1344C79.8061 33.4344 79.8631 33.7704 79.8631 34.1424ZM78.7471 34.1424C78.7471 33.6744 78.6451 33.3054 78.4411 33.0354C78.2431 32.7594 77.9641 32.6214 77.6041 32.6214C77.2441 32.6214 76.9621 32.7594 76.7581 33.0354C76.5601 33.3054 76.4611 33.6744 76.4611 34.1424C76.4611 34.6164 76.5601 34.9914 76.7581 35.2674C76.9621 35.5434 77.2441 35.6814 77.6041 35.6814C77.9641 35.6814 78.2431 35.5434 78.4411 35.2674C78.6451 34.9914 78.7471 34.6164 78.7471 34.1424ZM81.724 34.1514C81.724 33.8034 81.778 33.4794 81.886 33.1794C81.994 32.8734 82.147 32.6094 82.345 32.3874C82.549 32.1654 82.795 31.9914 83.083 31.8654C83.371 31.7394 83.695 31.6764 84.055 31.6764C84.499 31.6764 84.919 31.7574 85.315 31.9194L85.081 32.8104C84.955 32.7564 84.811 32.7114 84.649 32.6754C84.493 32.6394 84.325 32.6214 84.145 32.6214C83.719 32.6214 83.395 32.7564 83.173 33.0264C82.951 33.2904 82.84 33.6654 82.84 34.1514C82.84 34.6194 82.945 34.9914 83.155 35.2674C83.365 35.5374 83.719 35.6724 84.217 35.6724C84.403 35.6724 84.586 35.6544 84.766 35.6184C84.946 35.5824 85.102 35.5374 85.234 35.4834L85.387 36.3834C85.267 36.4434 85.084 36.4974 84.838 36.5454C84.598 36.5934 84.349 36.6174 84.091 36.6174C83.689 36.6174 83.338 36.5574 83.038 36.4374C82.744 36.3114 82.498 36.1404 82.3 35.9244C82.108 35.7024 81.964 35.4414 81.868 35.1414C81.772 34.8354 81.724 34.5054 81.724 34.1514ZM86.9691 34.1514C86.9691 33.8034 87.0231 33.4794 87.1311 33.1794C87.2391 32.8734 87.3921 32.6094 87.5901 32.3874C87.7941 32.1654 88.0401 31.9914 88.3281 31.8654C88.6161 31.7394 88.9401 31.6764 89.3001 31.6764C89.7441 31.6764 90.1641 31.7574 90.5601 31.9194L90.3261 32.8104C90.2001 32.7564 90.0561 32.7114 89.8941 32.6754C89.7381 32.6394 89.5701 32.6214 89.3901 32.6214C88.9641 32.6214 88.6401 32.7564 88.4181 33.0264C88.1961 33.2904 88.0851 33.6654 88.0851 34.1514C88.0851 34.6194 88.1901 34.9914 88.4001 35.2674C88.6101 35.5374 88.9641 35.6724 89.4621 35.6724C89.6481 35.6724 89.8311 35.6544 90.0111 35.6184C90.1911 35.5824 90.3471 35.5374 90.4791 35.4834L90.6321 36.3834C90.5121 36.4434 90.3291 36.4974 90.0831 36.5454C89.8431 36.5934 89.5941 36.6174 89.3361 36.6174C88.9341 36.6174 88.5831 36.5574 88.2831 36.4374C87.9891 36.3114 87.7431 36.1404 87.5451 35.9244C87.3531 35.7024 87.2091 35.4414 87.1131 35.1414C87.0171 34.8354 86.9691 34.5054 86.9691 34.1514ZM92.2142 34.1694C92.2142 33.7554 92.2742 33.3924 92.3942 33.0804C92.5202 32.7684 92.6852 32.5104 92.8892 32.3064C93.0932 32.0964 93.3272 31.9404 93.5912 31.8384C93.8552 31.7304 94.1252 31.6764 94.4012 31.6764C95.0492 31.6764 95.5532 31.8774 95.9132 32.2794C96.2792 32.6814 96.4622 33.2814 96.4622 34.0794C96.4622 34.1394 96.4592 34.2084 96.4532 34.2864C96.4532 34.3584 96.4502 34.4244 96.4442 34.4844H93.3392C93.3692 34.8624 93.5012 35.1564 93.7352 35.3664C93.9752 35.5704 94.3202 35.6724 94.7702 35.6724C95.0342 35.6724 95.2742 35.6484 95.4902 35.6004C95.7122 35.5524 95.8862 35.5014 96.0122 35.4474L96.1562 36.3384C96.0962 36.3684 96.0122 36.4014 95.9042 36.4374C95.8022 36.4674 95.6822 36.4944 95.5442 36.5184C95.4122 36.5484 95.2682 36.5724 95.1122 36.5904C94.9562 36.6084 94.7972 36.6174 94.6352 36.6174C94.2212 36.6174 93.8612 36.5574 93.5552 36.4374C93.2492 36.3114 92.9972 36.1404 92.7992 35.9244C92.6012 35.7024 92.4542 35.4444 92.3582 35.1504C92.2622 34.8504 92.2142 34.5234 92.2142 34.1694ZM95.3732 33.6834C95.3732 33.5334 95.3522 33.3924 95.3102 33.2604C95.2682 33.1224 95.2052 33.0054 95.1212 32.9094C95.0432 32.8074 94.9442 32.7294 94.8242 32.6754C94.7102 32.6154 94.5722 32.5854 94.4102 32.5854C94.2422 32.5854 94.0952 32.6184 93.9692 32.6844C93.8432 32.7444 93.7352 32.8254 93.6452 32.9274C93.5612 33.0294 93.4952 33.1464 93.4472 33.2784C93.3992 33.4104 93.3662 33.5454 93.3482 33.6834H95.3732ZM100.462 32.6934C100.456 32.9574 100.447 33.2334 100.435 33.5214C100.423 33.8034 100.393 34.0824 100.345 34.3584C100.303 34.6344 100.234 34.8984 100.138 35.1504C100.042 35.4024 99.9068 35.6304 99.7328 35.8344C99.5648 36.0324 99.3518 36.2004 99.0938 36.3384C98.8418 36.4704 98.5328 36.5544 98.1668 36.5904L98.0138 35.6814C98.3198 35.6214 98.5568 35.5254 98.7248 35.3934C98.8928 35.2554 99.0218 35.0814 99.1118 34.8714C99.1838 34.7154 99.2378 34.5384 99.2738 34.3404C99.3158 34.1424 99.3458 33.9354 99.3638 33.7194C99.3878 33.4974 99.4028 33.2724 99.4088 33.0444C99.4148 32.8164 99.4178 32.5944 99.4178 32.3784V31.7934H102.748V36.5004H101.659V32.6934H100.462ZM106.225 33.5304C106.315 33.5064 106.447 33.4854 106.621 33.4674C106.795 33.4494 106.969 33.4404 107.143 33.4404C107.413 33.4404 107.665 33.4704 107.899 33.5304C108.139 33.5904 108.346 33.6864 108.52 33.8184C108.694 33.9444 108.832 34.1094 108.934 34.3134C109.036 34.5114 109.087 34.7484 109.087 35.0244C109.087 35.3064 109.039 35.5464 108.943 35.7444C108.847 35.9424 108.709 36.1044 108.529 36.2304C108.349 36.3564 108.133 36.4494 107.881 36.5094C107.635 36.5694 107.359 36.5994 107.053 36.5994C106.699 36.5994 106.369 36.5814 106.063 36.5454C105.757 36.5094 105.448 36.4554 105.136 36.3834V31.7934H106.225V33.5304ZM107.026 35.7444C107.332 35.7444 107.569 35.6874 107.737 35.5734C107.911 35.4534 107.998 35.2644 107.998 35.0064C107.998 34.8744 107.968 34.7634 107.908 34.6734C107.854 34.5834 107.779 34.5114 107.683 34.4574C107.593 34.3974 107.485 34.3554 107.359 34.3314C107.233 34.3074 107.101 34.2954 106.963 34.2954C106.837 34.2954 106.705 34.3014 106.567 34.3134C106.429 34.3194 106.315 34.3344 106.225 34.3584V35.6994C106.303 35.7114 106.417 35.7234 106.567 35.7354C106.723 35.7414 106.876 35.7444 107.026 35.7444ZM112.768 33.3324L113.767 31.7934H114.91L113.362 34.0164C113.686 34.4364 113.995 34.8624 114.289 35.2944C114.589 35.7204 114.835 36.1224 115.027 36.5004H113.848C113.794 36.3864 113.722 36.2574 113.632 36.1134C113.548 35.9634 113.455 35.8104 113.353 35.6544C113.257 35.4924 113.155 35.3334 113.047 35.1774C112.939 35.0214 112.834 34.8744 112.732 34.7364C112.522 35.0064 112.315 35.3064 112.111 35.6364C111.913 35.9604 111.748 36.2484 111.616 36.5004H110.5C110.59 36.3204 110.698 36.1284 110.824 35.9244C110.95 35.7204 111.085 35.5134 111.229 35.3034C111.373 35.0874 111.52 34.8744 111.67 34.6644C111.826 34.4484 111.979 34.2444 112.129 34.0524L110.572 31.7934H111.769L112.768 33.3324ZM120.938 34.1424C120.938 34.5144 120.884 34.8534 120.776 35.1594C120.668 35.4654 120.515 35.7264 120.317 35.9424C120.119 36.1584 119.879 36.3264 119.597 36.4464C119.321 36.5664 119.015 36.6264 118.679 36.6264C118.343 36.6264 118.037 36.5664 117.761 36.4464C117.485 36.3264 117.248 36.1584 117.05 35.9424C116.852 35.7264 116.696 35.4654 116.582 35.1594C116.474 34.8534 116.42 34.5144 116.42 34.1424C116.42 33.7704 116.474 33.4344 116.582 33.1344C116.696 32.8284 116.852 32.5674 117.05 32.3514C117.254 32.1354 117.494 31.9704 117.77 31.8564C118.046 31.7364 118.349 31.6764 118.679 31.6764C119.009 31.6764 119.312 31.7364 119.588 31.8564C119.87 31.9704 120.11 32.1354 120.308 32.3514C120.506 32.5674 120.659 32.8284 120.767 33.1344C120.881 33.4344 120.938 33.7704 120.938 34.1424ZM119.822 34.1424C119.822 33.6744 119.72 33.3054 119.516 33.0354C119.318 32.7594 119.039 32.6214 118.679 32.6214C118.319 32.6214 118.037 32.7594 117.833 33.0354C117.635 33.3054 117.536 33.6744 117.536 34.1424C117.536 34.6164 117.635 34.9914 117.833 35.2674C118.037 35.5434 118.319 35.6814 118.679 35.6814C119.039 35.6814 119.318 35.5434 119.516 35.2674C119.72 34.9914 119.822 34.6164 119.822 34.1424ZM122.721 31.9374C122.799 31.9074 122.895 31.8774 123.009 31.8474C123.123 31.8174 123.246 31.7904 123.378 31.7664C123.51 31.7424 123.648 31.7244 123.792 31.7124C123.942 31.6944 124.092 31.6854 124.242 31.6854C124.5 31.6854 124.746 31.7094 124.98 31.7574C125.214 31.8054 125.418 31.8834 125.592 31.9914C125.766 32.0994 125.904 32.2374 126.006 32.4054C126.114 32.5734 126.168 32.7744 126.168 33.0084C126.168 33.2604 126.099 33.4734 125.961 33.6474C125.823 33.8214 125.664 33.9504 125.484 34.0344C125.754 34.1364 125.961 34.2864 126.105 34.4844C126.249 34.6824 126.321 34.9344 126.321 35.2404C126.321 35.4864 126.267 35.6964 126.159 35.8704C126.057 36.0444 125.913 36.1884 125.727 36.3024C125.547 36.4104 125.334 36.4884 125.088 36.5364C124.842 36.5904 124.575 36.6174 124.287 36.6174C123.939 36.6174 123.615 36.5874 123.315 36.5274C123.015 36.4734 122.778 36.4074 122.604 36.3294L122.793 35.4474C122.907 35.4954 123.09 35.5524 123.342 35.6184C123.594 35.6784 123.891 35.7084 124.233 35.7084C124.893 35.7084 125.223 35.5164 125.223 35.1324C125.223 34.9944 125.193 34.8834 125.133 34.7994C125.073 34.7154 124.998 34.6524 124.908 34.6104C124.818 34.5624 124.716 34.5324 124.602 34.5204C124.488 34.5024 124.377 34.4934 124.269 34.4934H123.369V33.6834H124.26C124.482 33.6834 124.671 33.6444 124.827 33.5664C124.989 33.4824 125.07 33.3384 125.07 33.1344C125.07 32.9664 124.992 32.8344 124.836 32.7384C124.686 32.6364 124.473 32.5854 124.197 32.5854C124.077 32.5854 123.954 32.5944 123.828 32.6124C123.702 32.6244 123.579 32.6424 123.459 32.6664C123.345 32.6904 123.24 32.7174 123.144 32.7474C123.048 32.7714 122.973 32.7954 122.919 32.8194L122.721 31.9374ZM132.469 30.4704C132.409 30.4824 132.343 30.4944 132.271 30.5064C132.205 30.5184 132.124 30.5304 132.028 30.5424C131.932 30.5544 131.818 30.5694 131.686 30.5874C131.56 30.5994 131.413 30.6144 131.245 30.6324C130.987 30.6624 130.756 30.7134 130.552 30.7854C130.348 30.8514 130.171 30.9504 130.021 31.0824C129.871 31.2084 129.748 31.3704 129.652 31.5684C129.556 31.7664 129.487 32.0064 129.445 32.2884C129.631 32.1684 129.832 32.0754 130.048 32.0094C130.27 31.9434 130.486 31.9104 130.696 31.9104C131.32 31.9104 131.815 32.1084 132.181 32.5044C132.547 32.9004 132.73 33.4734 132.73 34.2234C132.73 34.5834 132.679 34.9104 132.577 35.2044C132.475 35.4984 132.328 35.7504 132.136 35.9604C131.944 36.1704 131.713 36.3354 131.443 36.4554C131.173 36.5694 130.867 36.6264 130.525 36.6264C130.099 36.6264 129.742 36.5574 129.454 36.4194C129.166 36.2754 128.935 36.0744 128.761 35.8164C128.587 35.5524 128.461 35.2374 128.383 34.8714C128.305 34.5054 128.266 34.0974 128.266 33.6474C128.266 33.0594 128.314 32.5404 128.41 32.0904C128.512 31.6344 128.674 31.2444 128.896 30.9204C129.124 30.5964 129.418 30.3354 129.778 30.1374C130.144 29.9334 130.588 29.7924 131.11 29.7144C131.38 29.6724 131.605 29.6394 131.785 29.6154C131.971 29.5914 132.157 29.5584 132.343 29.5164L132.469 30.4704ZM129.409 33.2424C129.397 33.3204 129.391 33.4164 129.391 33.5304C129.391 33.6384 129.391 33.7404 129.391 33.8364C129.391 34.1064 129.409 34.3554 129.445 34.5834C129.481 34.8114 129.544 35.0064 129.634 35.1684C129.724 35.3304 129.841 35.4564 129.985 35.5464C130.129 35.6364 130.309 35.6814 130.525 35.6814C130.711 35.6814 130.873 35.6454 131.011 35.5734C131.149 35.5014 131.263 35.3994 131.353 35.2674C131.443 35.1354 131.509 34.9824 131.551 34.8084C131.599 34.6284 131.623 34.4334 131.623 34.2234C131.623 34.0434 131.602 33.8724 131.56 33.7104C131.524 33.5424 131.461 33.3954 131.371 33.2694C131.287 33.1374 131.173 33.0324 131.029 32.9544C130.885 32.8764 130.708 32.8374 130.498 32.8374C130.294 32.8374 130.09 32.8734 129.886 32.9454C129.688 33.0174 129.529 33.1164 129.409 33.2424ZM136.516 35.7354C136.852 35.7354 137.107 35.7174 137.281 35.6814V34.4754C137.221 34.4574 137.134 34.4394 137.02 34.4214C136.906 34.4034 136.78 34.3944 136.642 34.3944C136.522 34.3944 136.399 34.4034 136.273 34.4214C136.153 34.4394 136.042 34.4724 135.94 34.5204C135.844 34.5684 135.766 34.6374 135.706 34.7274C135.646 34.8114 135.616 34.9194 135.616 35.0514C135.616 35.3094 135.697 35.4894 135.859 35.5914C136.021 35.6874 136.24 35.7354 136.516 35.7354ZM136.426 31.6764C136.786 31.6764 137.089 31.7214 137.335 31.8114C137.581 31.9014 137.776 32.0274 137.92 32.1894C138.07 32.3514 138.175 32.5494 138.235 32.7834C138.301 33.0114 138.334 33.2634 138.334 33.5394V36.3924C138.166 36.4284 137.911 36.4704 137.569 36.5184C137.233 36.5724 136.852 36.5994 136.426 36.5994C136.144 36.5994 135.886 36.5724 135.652 36.5184C135.418 36.4644 135.217 36.3774 135.049 36.2574C134.887 36.1374 134.758 35.9814 134.662 35.7894C134.572 35.5974 134.527 35.3604 134.527 35.0784C134.527 34.8084 134.578 34.5804 134.68 34.3944C134.788 34.2084 134.932 34.0584 135.112 33.9444C135.292 33.8244 135.499 33.7404 135.733 33.6924C135.973 33.6384 136.222 33.6114 136.48 33.6114C136.6 33.6114 136.726 33.6204 136.858 33.6384C136.99 33.6504 137.131 33.6744 137.281 33.7104V33.5304C137.281 33.4044 137.266 33.2844 137.236 33.1704C137.206 33.0564 137.152 32.9574 137.074 32.8734C137.002 32.7834 136.903 32.7144 136.777 32.6664C136.657 32.6184 136.504 32.5944 136.318 32.5944C136.066 32.5944 135.835 32.6124 135.625 32.6484C135.415 32.6844 135.244 32.7264 135.112 32.7744L134.977 31.8924C135.115 31.8444 135.316 31.7964 135.58 31.7484C135.844 31.7004 136.126 31.6764 136.426 31.6764ZM144.619 36.5004H143.53V34.5294H141.757V36.5004H140.668V31.7934H141.757V33.6294H143.53V31.7934H144.619V36.5004ZM148.092 33.6834C148.23 33.5454 148.38 33.3924 148.542 33.2244C148.704 33.0504 148.863 32.8764 149.019 32.7024C149.181 32.5284 149.334 32.3634 149.478 32.2074C149.622 32.0454 149.742 31.9074 149.838 31.7934H151.116C150.984 31.9494 150.831 32.1204 150.657 32.3064C150.489 32.4924 150.312 32.6844 150.126 32.8824C149.946 33.0744 149.766 33.2634 149.586 33.4494C149.412 33.6294 149.253 33.7914 149.109 33.9354C149.295 34.0914 149.487 34.2744 149.685 34.4844C149.889 34.6884 150.087 34.9074 150.279 35.1414C150.477 35.3694 150.66 35.6034 150.828 35.8434C150.996 36.0774 151.137 36.2964 151.251 36.5004H149.991C149.877 36.3204 149.742 36.1314 149.586 35.9334C149.436 35.7354 149.277 35.5434 149.109 35.3574C148.941 35.1654 148.77 34.9854 148.596 34.8174C148.422 34.6494 148.254 34.5054 148.092 34.3854V36.5004H147.003V31.7934H148.092V33.6834ZM154.695 35.7354C155.031 35.7354 155.286 35.7174 155.46 35.6814V34.4754C155.4 34.4574 155.313 34.4394 155.199 34.4214C155.085 34.4034 154.959 34.3944 154.821 34.3944C154.701 34.3944 154.578 34.4034 154.452 34.4214C154.332 34.4394 154.221 34.4724 154.119 34.5204C154.023 34.5684 153.945 34.6374 153.885 34.7274C153.825 34.8114 153.795 34.9194 153.795 35.0514C153.795 35.3094 153.876 35.4894 154.038 35.5914C154.2 35.6874 154.419 35.7354 154.695 35.7354ZM154.605 31.6764C154.965 31.6764 155.268 31.7214 155.514 31.8114C155.76 31.9014 155.955 32.0274 156.099 32.1894C156.249 32.3514 156.354 32.5494 156.414 32.7834C156.48 33.0114 156.513 33.2634 156.513 33.5394V36.3924C156.345 36.4284 156.09 36.4704 155.748 36.5184C155.412 36.5724 155.031 36.5994 154.605 36.5994C154.323 36.5994 154.065 36.5724 153.831 36.5184C153.597 36.4644 153.396 36.3774 153.228 36.2574C153.066 36.1374 152.937 35.9814 152.841 35.7894C152.751 35.5974 152.706 35.3604 152.706 35.0784C152.706 34.8084 152.757 34.5804 152.859 34.3944C152.967 34.2084 153.111 34.0584 153.291 33.9444C153.471 33.8244 153.678 33.7404 153.912 33.6924C154.152 33.6384 154.401 33.6114 154.659 33.6114C154.779 33.6114 154.905 33.6204 155.037 33.6384C155.169 33.6504 155.31 33.6744 155.46 33.7104V33.5304C155.46 33.4044 155.445 33.2844 155.415 33.1704C155.385 33.0564 155.331 32.9574 155.253 32.8734C155.181 32.7834 155.082 32.7144 154.956 32.6664C154.836 32.6184 154.683 32.5944 154.497 32.5944C154.245 32.5944 154.014 32.6124 153.804 32.6484C153.594 32.6844 153.423 32.7264 153.291 32.7744L153.156 31.8924C153.294 31.8444 153.495 31.7964 153.759 31.7484C154.023 31.7004 154.305 31.6764 154.605 31.6764Z" fill="#7D7E7F"/>
</g>
<defs>
<linearGradient id="paint0_linear_36101_96801" x1="7.2926" y1="35.1534" x2="32.9068" y2="4.64018" gradientUnits="userSpaceOnUse">
<stop stop-color="#FFE03D"/>
<stop offset="0.11" stop-color="#FFCB05"/>
<stop offset="0.55" stop-color="#A6CE39"/>
<stop offset="0.85" stop-color="#6AA744"/>
<stop offset="1" stop-color="#248341"/>
</linearGradient>
<clipPath id="clip0_36101_96801">
<rect width="133" height="37" fill="white" transform="translate(52 1.50035)"/>
</clipPath>
<clipPath id="clip1_36101_96801">
<rect width="133" height="22" fill="white" transform="translate(52 1.50035)"/>
</clipPath>
</defs>
</svg>
