<svg width="40" height="41" viewBox="0 0 40 41" fill="none" xmlns="http://www.w3.org/2000/svg">
<path fill-rule="evenodd" clip-rule="evenodd" d="M0.737742 25.3792C1.12913 26.7805 1.67464 28.1436 2.37038 29.4427C2.79797 30.2411 3.27713 31.0057 3.80335 31.7323C5.03398 27.9275 9.50676 24.5663 16.2948 22.4818C20.1497 21.2937 20.0038 19.3553 19.3266 15.0199C18.9634 13.1426 18.8166 11.2299 18.889 9.31922C19.0902 7.23897 19.9518 5.27778 21.3478 3.7228C22.5172 2.43143 23.9496 1.42708 25.5336 0.767431C23.9509 0.312206 22.3161 0.0541646 20.6663 0.000648917C17.7144 5.9199 15.5698 7.04975 14.0191 7.86666L14.0132 7.8698L14.0119 7.87049C12.679 8.57878 11.7936 9.0493 10.4813 14.7689C9.26769 20.0581 5.64123 24.0203 0.737742 25.3792ZM17.5979 0.134981C13.8287 0.591072 10.2492 2.11382 7.29224 4.54763C3.72018 7.48767 1.27743 11.5754 0.380008 16.1147C-0.0568051 18.3241 -0.114359 20.574 0.193529 22.7719C4.0826 21.6371 6.84262 18.5611 7.85577 14.1853C9.36646 7.61968 10.6896 6.6192 12.7317 5.54578C13.9603 4.90784 15.4 4.14322 17.5979 0.134981ZM28.905 2.07842C25.9215 2.73741 21.8655 5.37023 21.5666 9.50681C21.4915 11.22 21.6068 12.9361 21.9104 14.6238C22.5459 18.5945 23.2544 23.1175 17.0449 25.0455C11.9483 26.587 6.15206 29.7793 5.7724 34.0558C6.73076 35.0261 7.78699 35.8971 8.92503 36.6541C9.86978 34.4466 12.0136 30.354 15.4094 28.8384C16.3186 28.4345 17.3046 28.2329 18.2993 28.2473C19.294 28.2617 20.2738 28.4918 21.1709 28.9217C21.8488 29.1523 22.4494 29.5668 22.9056 30.1188C23.3618 30.6709 23.6558 31.3388 23.7547 32.0482C24.0519 34.8426 21.0166 38.0397 18.8009 39.9654C19.6538 40.0166 20.5098 40.0132 21.3637 39.9548C23.8315 38.4561 25.6993 36.2792 26.8076 34.1234C30.0332 28.2219 28.7072 24.2643 27.4272 20.4441L27.4223 20.4294C26.7566 18.7636 26.3456 17.0069 26.2033 15.2186C26.0272 8.4856 29.5995 5.08552 31.6211 3.71076C30.7612 3.09607 29.8531 2.55009 28.905 2.07842ZM33.7736 5.48979C32.7502 6.0294 28.6661 8.60609 28.7871 15.156C28.9195 16.6918 29.2703 18.2008 29.829 19.6373L29.8441 19.6826C31.1648 23.6351 32.8047 28.543 29.0268 35.447C28.377 36.693 27.5696 37.843 26.6288 38.8705C30.6356 37.4627 34.0962 34.8128 36.5017 31.2991L36.4971 31.2984C36.9347 28.297 35.8407 25.9312 34.6634 23.4196C33.5384 21.4208 32.8762 19.195 32.7255 16.9061C32.7255 13.1964 35.3307 11.0574 37.3922 10.1183C36.5114 8.56649 35.421 7.12883 34.1416 5.8492C34.0204 5.72775 33.8978 5.60794 33.7736 5.48979ZM38.3527 12.0452C37.1126 12.5936 34.9343 13.999 34.9343 16.8644C35.0942 18.8294 35.6809 20.7357 36.6534 22.4504C37.3841 23.9799 38.1546 25.6216 38.5554 27.4608C39.7498 24.4904 40.2216 21.2568 39.9032 18.0306C39.6981 15.9519 39.1706 13.9342 38.3527 12.0452ZM15.2431 39.4273L15.2427 39.4268C17.7432 37.6134 21.3272 34.1013 21.1397 32.34C21.1397 32.1733 21.0771 31.746 20.0978 31.2979C19.535 31.0352 18.9216 30.8991 18.3006 30.8991C17.6796 30.8991 17.0661 31.0352 16.5034 31.2979C14.0146 32.3876 12.1356 35.9176 11.257 37.9886C11.6188 38.1645 11.9867 38.3298 12.3602 38.4843C13.3008 38.8731 14.2647 39.1876 15.2431 39.4273Z" fill="url(#paint0_linear_36101_96949)"/>
<defs>
<linearGradient id="paint0_linear_36101_96949" x1="7.2926" y1="35.1541" x2="32.9068" y2="4.64089" gradientUnits="userSpaceOnUse">
<stop stop-color="#FFE03D"/>
<stop offset="0.11" stop-color="#FFCB05"/>
<stop offset="0.55" stop-color="#A6CE39"/>
<stop offset="0.85" stop-color="#6AA744"/>
<stop offset="1" stop-color="#248341"/>
</linearGradient>
</defs>
</svg>
