<?xml version="1.0" encoding="utf-8"?>
<!-- Generator: Adobe Illustrator 24.0.2, SVG Export Plug-In . SVG Version: 6.00 Build 0)  -->
<svg version="1.1" id="Слой_1" xmlns="http://www.w3.org/2000/svg" xmlns:xlink="http://www.w3.org/1999/xlink" x="0px" y="0px"
	 viewBox="0 0 24 24" style="enable-background:new 0 0 24 24;" xml:space="preserve">
<style type="text/css">
	.st0{fill:none;stroke:#000000;stroke-width:2;stroke-linecap:round;stroke-linejoin:round;}
	.st1{display:none;fill:none;stroke:#000000;stroke-width:2;stroke-linecap:round;stroke-linejoin:round;}
	.st2{fill:none;stroke:#000000;stroke-width:2.2715;stroke-linecap:round;stroke-linejoin:round;}
</style>
<g>
	<g>
		<path class="st0" d="M5.5,22.9c0,0,8.9,0.7,11.9-2.7c3-3.5,5.4-9.6,4.4-16.5c0,0-0.9,7.7-7.5,9.8C8,15.5,6.2,19.2,5.5,22.9z"/>
		<path class="st0" d="M17,6.9c1.9-0.9,3.6-1.9,4.9-3.3"/>
		<path class="st0" d="M5.5,22.9c0,0-3.3-6-0.2-9.8"/>
		<path class="st1" d="M14.4,3.9c-0.1,0.6-0.3,1.2-0.6,1.7c-1.4,2.8-5.1,5.7-5.1,5.7C5.4,8.5,4,6.5,3.4,5.4C3.3,5.1,3.1,4.7,3,4.4
			c0-0.2,0-0.3,0-0.5c0-0.4,0.1-0.7,0.2-1.1c0.1-0.3,0.3-0.7,0.6-0.9c0.3-0.3,0.6-0.5,0.9-0.6C5.1,1.1,5.5,1,5.8,1
			c0.4,0,0.7,0.1,1.1,0.2c0.3,0.1,0.7,0.3,0.9,0.6c0.3,0.3,0.5,0.6,0.6,0.9c0.1,0.3,0.2,0.7,0.2,1.1c0,0,0,0,0,0c0,0,0,0,0,0.1V3.8
			c0-0.7,0.4-1.4,0.9-1.9c0.5-0.5,1.2-0.8,2-0.8c0.7,0,1.4,0.3,2,0.8C14.1,2.4,14.4,3.1,14.4,3.9L14.4,3.9z"/>
	</g>
</g>
<line class="st2" x1="9.5" y1="2.7" x2="9.5" y2="11.2"/>
<line class="st2" x1="13.8" y1="6.9" x2="5.3" y2="6.9"/>
</svg>
