<svg width="20" height="20" viewBox="0 0 20 20" fill="none" xmlns="http://www.w3.org/2000/svg">
<path d="M6 11.8465C6.17391 13.4876 7.91304 14.8004 10 14.8004C12.1739 14.8004 14 13.3235 14 11.6004C14 9.87731 12.1739 8.40039 10 8.40039C9.02642 8.40039 8.10845 8.66278 7.424 9.14558" stroke="#1C1C1C" stroke-width="1.6" stroke-miterlimit="10" stroke-linecap="round" stroke-linejoin="round"/>
<path d="M14.9329 17.1448C13.5912 18.2207 11.8549 18.8 10.0397 18.8C5.61993 18.8 1.98943 15.2414 1.98943 10.9379C1.98943 9.36552 2.2262 8.12414 3.01544 6.88276C1.98943 6.55172 1.2002 5.64138 1.2002 4.48276V2H3.64683C4.83069 2 5.77777 2.82759 5.93562 3.98621C7.1984 3.24138 8.46118 2.9931 10.0397 2.9931C11.6181 2.9931 12.8809 3.24138 14.0648 3.98621C14.3015 2.82759 15.2486 2 16.3536 2H18.8002V4.4C18.8002 5.55862 18.011 6.55172 16.9849 6.8C17.7742 8.04138 18.011 9.28276 18.011 10.8552C18.011 12.1844 17.6725 13.3954 17.0911 14.4881" stroke="#1C1C1C" stroke-width="1.6" stroke-miterlimit="10" stroke-linecap="round" stroke-linejoin="round"/>
</svg>
