<?xml version="1.0" encoding="UTF-8"?>
<svg xmlns="http://www.w3.org/2000/svg" xmlns:xlink="http://www.w3.org/1999/xlink" width="24px" height="24px" viewBox="0 0 24 24" version="1.1">
<g id="surface1">
<path style=" stroke:none;fill-rule:evenodd;fill:rgb(0%,0%,0%);fill-opacity:1;" d="M 20.390625 4.5 C 21.183594 4.488281 21.910156 4.929688 22.078125 5.53125 C 22.171875 5.871094 21.898438 6.0625 21.984375 6.28125 C 22.144531 6.695312 22.832031 7.367188 22.6875 8.015625 C 22.578125 8.511719 22.171875 8.671875 22.078125 9.09375 C 22.285156 9.28125 22.398438 9.554688 22.59375 9.75 C 23.078125 10.234375 23.695312 10.484375 23.953125 11.203125 C 24.167969 11.804688 23.910156 12.5625 23.484375 12.703125 C 23.269531 12.875 22.863281 12.769531 22.640625 12.703125 C 22.277344 12.59375 21.992188 12.550781 21.703125 12.375 C 21.453125 12.222656 21.289062 11.972656 20.953125 11.90625 C 20.449219 12.328125 19.976562 12.707031 20.015625 13.546875 L 20.0625 13.546875 L 20.0625 13.59375 C 20.324219 13.453125 20.496094 13.214844 20.8125 13.125 C 21.738281 12.863281 22.425781 13.527344 22.59375 14.203125 C 22.753906 14.84375 22.222656 15.199219 22.359375 15.703125 C 22.402344 15.863281 22.578125 16.070312 22.640625 16.21875 C 22.894531 16.828125 22.660156 17.644531 22.40625 18.046875 C 22.214844 18.351562 21.316406 19.214844 20.71875 18.75 C 20.464844 18.65625 20.273438 18.449219 20.203125 18.1875 C 20.097656 17.804688 20.421875 17.394531 20.109375 17.203125 C 19.691406 17.613281 18.757812 17.398438 18.46875 17.015625 C 18.367188 16.882812 18.382812 16.730469 18.234375 16.640625 L 18.234375 16.734375 C 17.960938 17.175781 18.4375 17.972656 17.859375 18.1875 C 17.609375 18.40625 17.324219 18.183594 17.0625 18.328125 L 17.0625 18.375 C 16.992188 18.433594 17.023438 18.484375 16.96875 18.5625 C 16.878906 18.683594 16.699219 18.738281 16.59375 18.84375 L 15.703125 18.796875 C 15.25 18.894531 14.949219 18.902344 14.53125 18.796875 C 14.414062 18.589844 14.285156 18.105469 14.015625 18.046875 C 13.941406 18.199219 13.953125 18.40625 13.875 18.609375 C 13.753906 18.925781 13.488281 19.054688 13.265625 19.265625 C 12.703125 19.296875 12.597656 19.171875 12.140625 19.125 C 11.609375 19.871094 9.953125 19.320312 9.65625 18.75 C 9.433594 18.320312 9.824219 18.007812 10.21875 18 C 10.503906 18.238281 10.855469 18.5 11.34375 18.515625 C 11.460938 18.359375 11.753906 18.203125 11.953125 18.140625 C 12.289062 18.039062 12.839844 18.339844 12.890625 18.28125 C 13.023438 18.070312 12.988281 17.734375 13.125 17.53125 C 13.40625 17.117188 14.238281 16.871094 14.765625 17.25 C 14.992188 17.414062 15.039062 17.816406 15.328125 17.90625 C 15.558594 17.761719 15.929688 17.941406 16.21875 17.8125 C 16.394531 17.734375 16.503906 17.46875 16.734375 17.390625 C 16.867188 17.347656 17.082031 17.4375 17.15625 17.34375 C 17.214844 17.269531 17.199219 16.546875 17.25 16.40625 C 17.429688 15.90625 17.679688 15.914062 18 15.609375 C 18.285156 15.601562 18.566406 15.632812 18.84375 15.703125 C 18.9375 15.855469 19.292969 16.394531 19.453125 16.453125 C 19.746094 16.171875 20.304688 16.152344 20.8125 16.21875 C 20.914062 16.359375 21.082031 16.453125 21.140625 16.640625 C 21.246094 16.980469 21.101562 17.527344 21.28125 17.8125 C 21.429688 17.589844 21.671875 17.398438 21.75 17.109375 C 21.890625 16.582031 21.46875 16.242188 21.375 15.890625 C 21.1875 15.195312 21.675781 14.847656 21.5625 14.25 C 21.433594 14.171875 21.445312 14.132812 21.234375 14.109375 C 20.9375 13.992188 20.292969 14.972656 19.640625 14.484375 C 19.144531 14.335938 18.847656 13.558594 19.03125 12.890625 C 19.226562 12.175781 19.726562 11.457031 20.296875 11.109375 C 21.308594 10.492188 22.160156 11.597656 23.015625 11.8125 L 23.015625 11.53125 C 22.769531 11.285156 22.589844 10.945312 22.3125 10.734375 C 21.902344 10.421875 21.425781 10.03125 21.1875 9.5625 C 21.109375 9.40625 21.023438 9.015625 21.09375 8.765625 C 21.195312 8.402344 21.539062 8.242188 21.65625 7.921875 C 21.761719 7.730469 21.429688 7.332031 21.328125 7.171875 C 21.0625 6.746094 20.90625 6.3125 21.046875 5.71875 C 20.886719 5.667969 20.867188 5.609375 20.671875 5.578125 C 20.464844 5.9375 20.027344 6.445312 19.5 6.46875 C 19.238281 6.261719 19.113281 6.269531 19.125 5.765625 C 19.558594 5.359375 19.976562 4.925781 20.390625 4.5 Z M 0.984375 16.40625 C 1.011719 16.65625 1.070312 16.816406 1.078125 17.109375 C 1.832031 17.324219 1.675781 18.089844 2.015625 18.28125 L 2.015625 18.1875 C 2.152344 17.972656 2.070312 17.589844 2.203125 17.390625 C 2.398438 17.097656 2.832031 17.257812 2.859375 16.78125 C 2.492188 16.226562 3.355469 15.53125 3.5625 15.328125 C 3.835938 15.300781 4.199219 15.222656 4.40625 15.375 C 5.09375 15.605469 4.886719 16.464844 5.390625 16.828125 C 5.4375 16.839844 5.410156 16.863281 5.4375 16.828125 C 5.84375 16.398438 6.089844 15.585938 6.84375 16.3125 L 6.84375 16.734375 C 6.527344 17.035156 6.285156 17.542969 5.90625 17.765625 C 4.785156 18.421875 4.273438 16.894531 4.03125 16.265625 L 3.9375 16.265625 L 3.890625 16.359375 C 3.703125 16.609375 3.921875 17.074219 3.796875 17.4375 C 3.636719 17.898438 3.074219 17.863281 3.046875 18.328125 L 2.90625 18.75 C 2.734375 19.039062 2.027344 19.527344 1.546875 19.171875 C 0.847656 18.976562 1.148438 18.488281 0.84375 18.09375 L 0.28125 17.8125 C 0.00390625 17.53125 -0.015625 16.300781 0.046875 15.796875 C 0.359375 15.59375 0.605469 15.472656 1.078125 15.375 C 1.101562 15.316406 1.117188 15.253906 1.125 15.1875 C 1.027344 15.039062 0.796875 13.453125 0.796875 13.171875 L 1.03125 12.84375 C 1.191406 12.730469 1.277344 12.808594 1.359375 12.609375 C 1.484375 12.402344 1.363281 11.953125 1.453125 11.71875 C 1.527344 11.519531 1.738281 11.433594 1.828125 11.25 C 1.5625 10.992188 1.5 10.5625 1.359375 10.171875 C 0.5625 7.949219 2.171875 6.234375 3.84375 5.8125 C 4.566406 5.628906 5.335938 5.882812 5.8125 6.09375 C 7.152344 6.683594 8.335938 8.390625 7.546875 10.3125 C 7.988281 10.328125 7.992188 10.558594 8.390625 10.59375 C 8.664062 10.289062 8.832031 9.984375 9.421875 9.984375 C 10.769531 11.0625 11.484375 9.324219 12.46875 9.046875 C 13.222656 8.832031 13.605469 9.351562 14.0625 9.515625 C 14.53125 9.140625 15.046875 9.40625 15.65625 9.421875 C 15.894531 8.8125 16 8.867188 16.40625 8.484375 C 16.578125 8.480469 16.753906 8.496094 16.921875 8.53125 C 17.046875 8.722656 17.113281 8.789062 17.109375 9.140625 C 17.027344 9.21875 16.734375 9.40625 16.6875 9.46875 C 16.476562 9.746094 16.519531 10.078125 16.21875 10.265625 C 16.007812 10.398438 15.390625 10.503906 15 10.40625 C 14.914062 10.382812 14.832031 10.277344 14.671875 10.3125 C 14.332031 10.382812 14.117188 10.585938 13.640625 10.59375 L 13.3125 10.359375 C 13.089844 10.050781 13.101562 9.996094 12.65625 10.03125 C 12.207031 10.476562 11.140625 11.546875 10.078125 11.296875 L 9.328125 11.0625 C 9.164062 11.320312 8.558594 11.75 8.109375 11.671875 C 7.796875 11.617188 7.683594 11.386719 7.359375 11.34375 C 7.273438 11.402344 7.113281 11.421875 7.03125 11.484375 C 6.410156 12.148438 5.257812 14.550781 3.796875 13.640625 C 3.222656 13.285156 2.925781 12.605469 2.390625 12.234375 C 2.398438 12.726562 2.3125 13.074219 2.109375 13.359375 L 1.875 13.546875 L 1.96875 14.0625 C 2.042969 15.300781 2.363281 16.246094 0.984375 16.40625 Z M 4.21875 6.75 C 4.066406 6.847656 3.839844 6.816406 3.65625 6.890625 C 3.046875 7.152344 2.558594 7.640625 2.296875 8.25 C 1.667969 9.761719 2.96875 11.210938 3.5625 12 C 3.796875 12.3125 4.097656 12.765625 4.546875 12.84375 L 5.296875 12.1875 C 5.753906 11.582031 6.253906 10.964844 6.5625 10.21875 C 7.335938 8.359375 6.105469 6.746094 4.21875 6.75 Z M 18.421875 7.453125 L 18.890625 7.5 C 19.363281 8.210938 18.574219 8.804688 18.1875 8.203125 C 17.914062 7.875 18.246094 7.613281 18.421875 7.453125 Z M 4.125 7.6875 C 4.9375 7.664062 5.425781 7.867188 5.71875 8.34375 C 6.261719 9.234375 5.605469 10.277344 4.875 10.5 C 3.839844 10.8125 2.671875 9.734375 3.09375 8.625 C 3.300781 8.082031 3.695312 8.003906 4.125 7.6875 Z M 4.3125 8.671875 C 4.210938 8.777344 4.136719 8.789062 4.078125 8.953125 C 4.03125 9.019531 4.03125 9.105469 4.03125 9.234375 C 4.199219 9.398438 4.238281 9.523438 4.546875 9.5625 C 4.65625 9.472656 4.746094 9.449219 4.828125 9.328125 C 4.898438 9.238281 4.910156 9.160156 4.921875 9 C 4.808594 8.878906 4.820312 8.785156 4.640625 8.71875 C 4.566406 8.667969 4.449219 8.671875 4.3125 8.671875 Z M 8.34375 16.59375 C 8.765625 16.582031 8.804688 16.683594 9 16.875 C 9.003906 17.046875 8.988281 17.222656 8.953125 17.390625 C 8.871094 17.4375 8.875 17.449219 8.765625 17.484375 C 8.585938 17.628906 8.414062 17.539062 8.203125 17.484375 C 8.164062 17.414062 8.117188 17.351562 8.0625 17.296875 C 8.050781 17.09375 8.003906 17.019531 8.109375 16.875 C 8.164062 16.710938 8.242188 16.699219 8.34375 16.59375 Z M 8.34375 16.59375 "/>
<path style=" stroke:none;fill-rule:evenodd;fill:rgb(0%,0%,0%);fill-opacity:1;" d="M 20.390625 4.5 C 21.183594 4.488281 21.910156 4.929688 22.078125 5.53125 C 22.171875 5.871094 21.898438 6.0625 21.984375 6.28125 C 22.144531 6.695312 22.832031 7.367188 22.6875 8.015625 C 22.578125 8.511719 22.171875 8.671875 22.078125 9.09375 C 22.285156 9.28125 22.398438 9.554688 22.59375 9.75 C 23.078125 10.234375 23.695312 10.484375 23.953125 11.203125 C 24.167969 11.804688 23.910156 12.5625 23.484375 12.703125 C 23.269531 12.875 22.863281 12.769531 22.640625 12.703125 C 22.277344 12.59375 21.992188 12.550781 21.703125 12.375 C 21.453125 12.222656 21.289062 11.972656 20.953125 11.90625 C 20.449219 12.328125 19.976562 12.707031 20.015625 13.546875 L 20.0625 13.546875 L 20.0625 13.59375 C 20.324219 13.453125 20.496094 13.214844 20.8125 13.125 C 21.738281 12.863281 22.425781 13.527344 22.59375 14.203125 C 22.753906 14.84375 22.222656 15.199219 22.359375 15.703125 C 22.402344 15.863281 22.578125 16.070312 22.640625 16.21875 C 22.894531 16.828125 22.660156 17.644531 22.40625 18.046875 C 22.214844 18.351562 21.316406 19.214844 20.71875 18.75 C 20.464844 18.65625 20.273438 18.449219 20.203125 18.1875 C 20.097656 17.804688 20.421875 17.394531 20.109375 17.203125 C 19.691406 17.613281 18.757812 17.398438 18.46875 17.015625 C 18.367188 16.882812 18.382812 16.730469 18.234375 16.640625 L 18.234375 16.734375 C 17.960938 17.175781 18.4375 17.972656 17.859375 18.1875 C 17.609375 18.40625 17.324219 18.183594 17.0625 18.328125 L 17.0625 18.375 C 16.992188 18.433594 17.023438 18.484375 16.96875 18.5625 C 16.878906 18.683594 16.699219 18.738281 16.59375 18.84375 L 15.703125 18.796875 C 15.25 18.894531 14.949219 18.902344 14.53125 18.796875 C 14.414062 18.589844 14.285156 18.105469 14.015625 18.046875 C 13.941406 18.199219 13.953125 18.40625 13.875 18.609375 C 13.753906 18.925781 13.488281 19.054688 13.265625 19.265625 C 12.703125 19.296875 12.597656 19.171875 12.140625 19.125 C 11.609375 19.871094 9.953125 19.320312 9.65625 18.75 C 9.433594 18.320312 9.824219 18.007812 10.21875 18 C 10.503906 18.238281 10.855469 18.5 11.34375 18.515625 C 11.460938 18.359375 11.753906 18.203125 11.953125 18.140625 C 12.289062 18.039062 12.839844 18.339844 12.890625 18.28125 C 13.023438 18.070312 12.988281 17.734375 13.125 17.53125 C 13.40625 17.117188 14.238281 16.871094 14.765625 17.25 C 14.992188 17.414062 15.039062 17.816406 15.328125 17.90625 C 15.558594 17.761719 15.929688 17.941406 16.21875 17.8125 C 16.394531 17.734375 16.503906 17.46875 16.734375 17.390625 C 16.867188 17.347656 17.082031 17.4375 17.15625 17.34375 C 17.214844 17.269531 17.199219 16.546875 17.25 16.40625 C 17.429688 15.90625 17.679688 15.914062 18 15.609375 C 18.285156 15.601562 18.566406 15.632812 18.84375 15.703125 C 18.9375 15.855469 19.292969 16.394531 19.453125 16.453125 C 19.746094 16.171875 20.304688 16.152344 20.8125 16.21875 C 20.914062 16.359375 21.082031 16.453125 21.140625 16.640625 C 21.246094 16.980469 21.101562 17.527344 21.28125 17.8125 C 21.429688 17.589844 21.671875 17.398438 21.75 17.109375 C 21.890625 16.582031 21.46875 16.242188 21.375 15.890625 C 21.1875 15.195312 21.675781 14.847656 21.5625 14.25 C 21.433594 14.171875 21.445312 14.132812 21.234375 14.109375 C 20.9375 13.992188 20.292969 14.972656 19.640625 14.484375 C 19.144531 14.335938 18.847656 13.558594 19.03125 12.890625 C 19.226562 12.175781 19.726562 11.457031 20.296875 11.109375 C 21.308594 10.492188 22.160156 11.597656 23.015625 11.8125 L 23.015625 11.53125 C 22.769531 11.285156 22.589844 10.945312 22.3125 10.734375 C 21.902344 10.421875 21.425781 10.03125 21.1875 9.5625 C 21.109375 9.40625 21.023438 9.015625 21.09375 8.765625 C 21.195312 8.402344 21.539062 8.242188 21.65625 7.921875 C 21.761719 7.730469 21.429688 7.332031 21.328125 7.171875 C 21.0625 6.746094 20.90625 6.3125 21.046875 5.71875 C 20.886719 5.667969 20.867188 5.609375 20.671875 5.578125 C 20.464844 5.9375 20.027344 6.445312 19.5 6.46875 C 19.238281 6.261719 19.113281 6.269531 19.125 5.765625 C 19.558594 5.359375 19.976562 4.925781 20.390625 4.5 Z M 0.984375 16.40625 C 1.011719 16.65625 1.070312 16.816406 1.078125 17.109375 C 1.832031 17.324219 1.675781 18.089844 2.015625 18.28125 L 2.015625 18.1875 C 2.152344 17.972656 2.070312 17.589844 2.203125 17.390625 C 2.398438 17.097656 2.832031 17.257812 2.859375 16.78125 C 2.492188 16.226562 3.355469 15.53125 3.5625 15.328125 C 3.835938 15.300781 4.199219 15.222656 4.40625 15.375 C 5.09375 15.605469 4.886719 16.464844 5.390625 16.828125 C 5.4375 16.839844 5.410156 16.863281 5.4375 16.828125 C 5.84375 16.398438 6.089844 15.585938 6.84375 16.3125 L 6.84375 16.734375 C 6.527344 17.035156 6.285156 17.542969 5.90625 17.765625 C 4.785156 18.421875 4.273438 16.894531 4.03125 16.265625 L 3.9375 16.265625 L 3.890625 16.359375 C 3.703125 16.609375 3.921875 17.074219 3.796875 17.4375 C 3.636719 17.898438 3.074219 17.863281 3.046875 18.328125 L 2.90625 18.75 C 2.734375 19.039062 2.027344 19.527344 1.546875 19.171875 C 0.847656 18.976562 1.148438 18.488281 0.84375 18.09375 L 0.28125 17.8125 C 0.00390625 17.53125 -0.015625 16.300781 0.046875 15.796875 C 0.359375 15.59375 0.605469 15.472656 1.078125 15.375 C 1.101562 15.316406 1.117188 15.253906 1.125 15.1875 C 1.027344 15.039062 0.796875 13.453125 0.796875 13.171875 L 1.03125 12.84375 C 1.191406 12.730469 1.277344 12.808594 1.359375 12.609375 C 1.484375 12.402344 1.363281 11.953125 1.453125 11.71875 C 1.527344 11.519531 1.738281 11.433594 1.828125 11.25 C 1.5625 10.992188 1.5 10.5625 1.359375 10.171875 C 0.5625 7.949219 2.171875 6.234375 3.84375 5.8125 C 4.566406 5.628906 5.335938 5.882812 5.8125 6.09375 C 7.152344 6.683594 8.335938 8.390625 7.546875 10.3125 C 7.988281 10.328125 7.992188 10.558594 8.390625 10.59375 C 8.664062 10.289062 8.832031 9.984375 9.421875 9.984375 C 10.769531 11.0625 11.484375 9.324219 12.46875 9.046875 C 13.222656 8.832031 13.605469 9.351562 14.0625 9.515625 C 14.53125 9.140625 15.046875 9.40625 15.65625 9.421875 C 15.894531 8.8125 16 8.867188 16.40625 8.484375 C 16.578125 8.480469 16.753906 8.496094 16.921875 8.53125 C 17.046875 8.722656 17.113281 8.789062 17.109375 9.140625 C 17.027344 9.21875 16.734375 9.40625 16.6875 9.46875 C 16.476562 9.746094 16.519531 10.078125 16.21875 10.265625 C 16.007812 10.398438 15.390625 10.503906 15 10.40625 C 14.914062 10.382812 14.832031 10.277344 14.671875 10.3125 C 14.332031 10.382812 14.117188 10.585938 13.640625 10.59375 L 13.3125 10.359375 C 13.089844 10.050781 13.101562 9.996094 12.65625 10.03125 C 12.207031 10.476562 11.140625 11.546875 10.078125 11.296875 L 9.328125 11.0625 C 9.164062 11.320312 8.558594 11.75 8.109375 11.671875 C 7.796875 11.617188 7.683594 11.386719 7.359375 11.34375 C 7.273438 11.402344 7.113281 11.421875 7.03125 11.484375 C 6.410156 12.148438 5.257812 14.550781 3.796875 13.640625 C 3.222656 13.285156 2.925781 12.605469 2.390625 12.234375 C 2.398438 12.726562 2.3125 13.074219 2.109375 13.359375 L 1.875 13.546875 L 1.96875 14.0625 C 2.042969 15.300781 2.363281 16.246094 0.984375 16.40625 Z M 4.21875 6.75 C 4.023438 6.757812 3.832031 6.804688 3.65625 6.890625 C 3.046875 7.152344 2.558594 7.640625 2.296875 8.25 C 1.667969 9.761719 2.96875 11.210938 3.5625 12 C 3.796875 12.3125 4.097656 12.765625 4.546875 12.84375 L 5.296875 12.1875 C 5.753906 11.582031 6.253906 10.964844 6.5625 10.21875 C 7.335938 8.359375 6.222656 6.734375 4.21875 6.75 Z M 18.421875 7.453125 C 18.621094 7.386719 18.753906 7.40625 18.890625 7.5 C 19.527344 8.078125 18.574219 8.804688 18.1875 8.203125 C 17.914062 7.875 18.183594 7.570312 18.421875 7.453125 Z M 4.125 7.6875 C 4.96875 7.59375 5.425781 7.867188 5.71875 8.34375 C 6.261719 9.234375 5.605469 10.277344 4.875 10.5 C 3.839844 10.8125 2.671875 9.734375 3.09375 8.625 C 3.300781 8.082031 3.554688 7.800781 4.125 7.6875 Z M 4.3125 8.671875 C 4.210938 8.777344 4.136719 8.789062 4.078125 8.953125 C 4.03125 9.019531 4.03125 9.105469 4.03125 9.234375 C 4.199219 9.398438 4.238281 9.523438 4.546875 9.5625 C 4.65625 9.472656 4.746094 9.449219 4.828125 9.328125 C 4.898438 9.238281 4.910156 9.160156 4.921875 9 C 4.808594 8.878906 4.820312 8.785156 4.640625 8.71875 C 4.566406 8.667969 4.449219 8.671875 4.3125 8.671875 Z M 8.34375 16.59375 C 8.765625 16.558594 8.828125 16.632812 9 16.875 C 9.058594 17.085938 9.011719 17.210938 8.953125 17.34375 C 8.902344 17.417969 8.839844 17.480469 8.765625 17.53125 C 8.660156 17.625 8.394531 17.566406 8.203125 17.484375 C 8.136719 17.429688 8.125 17.4375 8.0625 17.296875 C 8.015625 17.097656 8.015625 17.0625 8.0625 16.875 C 8.117188 16.710938 8.160156 16.683594 8.34375 16.59375 Z M 8.34375 16.59375 "/>
</g>
</svg>
