<svg width="24" height="24" viewBox="0 0 24 24" fill="none" xmlns="http://www.w3.org/2000/svg">
<path d="M15 10H5M5 10H4C2.89543 10 2 10.8954 2 12V13.7307C2 14.57 2.15097 15.4026 2.4457 16.1885L5 23H19L21.5543 16.1885C21.849 15.4026 22 14.57 22 13.7307V12C22 10.8954 21.1046 10 20 10H19V7C19 5.89543 18.1046 5 17 5H7C5.89543 5 5 5.89543 5 7V10Z" stroke="#1C1C1C" stroke-width="2" stroke-linecap="round" stroke-linejoin="round"/>
<path d="M12 5C10.8954 5 10 4.10457 10 3C10 1.89543 10.8954 1 12 1C12.7403 1 13.3866 1.4022 13.7324 2" stroke="#1C1C1C" stroke-width="2" stroke-linecap="round" stroke-linejoin="round"/>
<path d="M6.6 17.2996C6.6 16.3607 5.79411 15.5996 4.8 15.5996C3.80589 15.5996 3 16.3607 3 17.2996" stroke="#1C1C1C" stroke-width="2" stroke-linecap="round" stroke-linejoin="round"/>
<path d="M10.1996 17.2996C10.1996 16.3607 9.39372 15.5996 8.39961 15.5996C7.4055 15.5996 6.59961 16.3607 6.59961 17.2996" stroke="#1C1C1C" stroke-width="2" stroke-linecap="round" stroke-linejoin="round"/>
<path d="M13.8002 17.2996C13.8002 16.3607 12.9943 15.5996 12.0002 15.5996C11.0061 15.5996 10.2002 16.3607 10.2002 17.2996" stroke="#1C1C1C" stroke-width="2" stroke-linecap="round" stroke-linejoin="round"/>
<path d="M17.3998 17.2996C17.3998 16.3607 16.5939 15.5996 15.5998 15.5996C14.6057 15.5996 13.7998 16.3607 13.7998 17.2996" stroke="#1C1C1C" stroke-width="2" stroke-linecap="round" stroke-linejoin="round"/>
<path d="M21.0004 17.2996C21.0004 16.3607 20.1945 15.5996 19.2004 15.5996C18.2063 15.5996 17.4004 16.3607 17.4004 17.2996" stroke="#1C1C1C" stroke-width="2" stroke-linecap="round" stroke-linejoin="round"/>
</svg>
