<?xml version="1.0" encoding="UTF-8"?>
<svg xmlns="http://www.w3.org/2000/svg" xmlns:xlink="http://www.w3.org/1999/xlink" width="24px" height="24px" viewBox="0 0 24 24" version="1.1">
<g id="surface1">
<path style=" stroke:none;fill-rule:nonzero;fill:rgb(0%,0%,0%);fill-opacity:1;" d="M 14.960938 3.03125 L 11.988281 4.65625 L 11.988281 2.996094 Z M 21 9.675781 L 20.445312 9.5 C 17.578125 8.671875 14.871094 7.363281 12.445312 5.628906 L 12 5.296875 L 11.546875 5.648438 C 9.113281 7.375 6.402344 8.679688 3.535156 9.5 L 3 9.675781 L 3 12.519531 L 4.34375 12.519531 L 3.71875 21 L 20.25 21 L 19.75 12.527344 L 21 12.527344 Z M 4.5 10.804688 C 7.167969 9.972656 9.695312 8.746094 12 7.171875 C 14.304688 8.746094 16.832031 9.972656 19.5 10.804688 L 19.5 11.027344 L 4.5 11.027344 Z M 18.660156 19.5 L 15.195312 19.5 C 13.953125 19.496094 12.945312 18.492188 12.945312 17.25 L 12.945312 13.5 C 12.945312 13.5 11.085938 18.109375 11.066406 18.15625 C 10.703125 18.972656 9.894531 19.5 9 19.5 L 5.351562 19.5 L 5.851562 12.46875 L 18.253906 12.46875 Z M 18.660156 19.5 "/>
</g>
</svg>
