<svg width="24" height="24" viewBox="0 0 24 24" fill="none" xmlns="http://www.w3.org/2000/svg">
<path d="M18.5 5.5L20 4" stroke="#1C1C1C" stroke-width="2" stroke-miterlimit="10" stroke-linecap="round" stroke-linejoin="round"/>
<path d="M20 8L23 8" stroke="#1C1C1C" stroke-width="2" stroke-miterlimit="10" stroke-linecap="round" stroke-linejoin="round"/>
<path d="M16 4V1" stroke="#1C1C1C" stroke-width="2" stroke-miterlimit="10" stroke-linecap="round" stroke-linejoin="round"/>
<path d="M4.41602 22.6029C2.71459 22.9728 1.1611 21.4193 1.457 19.6439C2.12278 16.0191 3.75024 12.6162 6.11746 9.80514L6.85722 8.91743C8.55866 6.92009 11.2218 5.88443 13.737 6.32828C15.8083 6.62419 17.4357 8.25165 17.7316 10.323C18.1755 12.8381 17.1398 15.5013 15.1425 17.2027L14.2548 17.9425C12.4514 19.4611 10.4045 20.6753 8.21164 21.5264" stroke="#1C1C1C" stroke-width="2" stroke-miterlimit="10" stroke-linecap="round" stroke-linejoin="round"/>
<path d="M9 8L12 11" stroke="#1C1C1C" stroke-width="2" stroke-miterlimit="10" stroke-linecap="round" stroke-linejoin="round"/>
<path d="M11 15L12 16" stroke="#1C1C1C" stroke-width="2" stroke-miterlimit="10" stroke-linecap="round" stroke-linejoin="round"/>
<path d="M4 13L7 16" stroke="#1C1C1C" stroke-width="2" stroke-miterlimit="10" stroke-linecap="round" stroke-linejoin="round"/>
</svg>
