<svg width="185" height="40" viewBox="0 0 185 40" fill="none" xmlns="http://www.w3.org/2000/svg">
<path fill-rule="evenodd" clip-rule="evenodd" d="M0.737741 25.3786C1.12913 26.7798 1.67464 28.143 2.37038 29.4421C2.79797 30.2405 3.27713 31.005 3.80335 31.7316C5.03398 27.9268 9.50676 24.5656 16.2948 22.4811C20.1497 21.293 20.0038 19.3546 19.3266 15.0192C18.9634 13.142 18.8166 11.2293 18.889 9.31857C19.0902 7.23832 19.9518 5.27713 21.3478 3.72215C22.5172 2.43078 23.9496 1.42643 25.5336 0.766782C23.9509 0.311557 22.3161 0.0535157 20.6663 0C17.7144 5.91925 15.5698 7.0491 14.0191 7.86601L14.0131 7.86915L14.0119 7.86984C12.679 8.57813 11.7936 9.04865 10.4812 14.7683C9.26769 20.0575 5.64123 24.0196 0.737741 25.3786ZM17.5979 0.134332C13.8287 0.590423 10.2492 2.11317 7.29224 4.54698C3.72018 7.48703 1.27743 11.5748 0.380007 16.114C-0.0568059 18.3234 -0.11436 20.5733 0.193528 22.7712C4.0826 21.6365 6.84262 18.5605 7.85577 14.1847C9.36646 7.61903 10.6896 6.61856 12.7317 5.54513C13.9603 4.90719 15.4 4.14257 17.5979 0.134332ZM28.905 2.07777C25.9215 2.73677 21.8655 5.36959 21.5666 9.50616C21.4915 11.2193 21.6068 12.9355 21.9104 14.6232C22.5459 18.5938 23.2544 23.1168 17.0449 25.0448C11.9483 26.5863 6.15206 29.7786 5.7724 34.0552C6.73076 35.0255 7.78699 35.8964 8.92503 36.6535C9.86978 34.4459 12.0136 30.3533 15.4094 28.8377C16.3186 28.4339 17.3046 28.2322 18.2993 28.2466C19.294 28.261 20.2738 28.4911 21.1709 28.9211C21.8488 29.1517 22.4494 29.5661 22.9056 30.1182C23.3618 30.6702 23.6558 31.3382 23.7547 32.0476C24.0519 34.8419 21.0166 38.039 18.8009 39.9647C19.6538 40.0159 20.5098 40.0125 21.3637 39.9542C23.8315 38.4554 25.6993 36.2786 26.8076 34.1228C30.0332 28.2213 28.7072 24.2636 27.4272 20.4435L27.4223 20.4287C26.7566 18.7629 26.3456 17.0063 26.2033 15.2179C26.0272 8.48495 29.5995 5.08487 31.6211 3.71011C30.7612 3.09542 29.8531 2.54944 28.905 2.07777ZM33.7736 5.48914C32.7502 6.02876 28.6661 8.60544 28.7871 15.1554C28.9195 16.6911 29.2703 18.2001 29.829 19.6367L29.8441 19.682C31.1648 23.6344 32.8047 28.5423 29.0268 35.4463C28.377 36.6924 27.5696 37.8423 26.6288 38.8699C30.6356 37.462 34.0962 34.8122 36.5017 31.2984L36.4971 31.2977C36.9346 28.2963 35.8407 25.9306 34.6634 23.419C33.5384 21.4202 32.8762 19.1943 32.7255 16.9055C32.7255 13.1958 35.3307 11.0567 37.3922 10.1177C36.5114 8.56585 35.421 7.12818 34.1416 5.84855C34.0204 5.7271 33.8978 5.60729 33.7736 5.48914ZM38.3527 12.0445C37.1126 12.5929 34.9343 13.9983 34.9343 16.8638C35.0942 18.8287 35.6809 20.7351 36.6533 22.4498C37.3841 23.9792 38.1546 25.6209 38.5554 27.4602C39.7498 24.4897 40.2216 21.2561 39.9032 18.03C39.6981 15.9512 39.1706 13.9336 38.3527 12.0445ZM15.2431 39.4266L15.2427 39.4261C17.7432 37.6127 21.3272 34.1006 21.1396 32.3394C21.1396 32.1726 21.0771 31.7454 20.0978 31.2972C19.535 31.0346 18.9216 30.8985 18.3006 30.8985C17.6796 30.8985 17.0661 31.0346 16.5034 31.2972C14.0146 32.387 12.1356 35.917 11.257 37.9879C11.6188 38.1638 11.9867 38.3292 12.3602 38.4836C13.3008 38.8725 14.2647 39.187 15.2431 39.4266Z" fill="white"/>
<g clip-path="url(#clip0_36101_96848)">
<g clip-path="url(#clip1_36101_96848)">
<path d="M59.82 20.3003C58.78 20.3003 57.8467 20.1403 57.02 19.8203C56.1933 19.5003 55.4933 19.0337 54.92 18.4203C54.3467 17.7937 53.9067 17.0337 53.6 16.1403C53.2933 15.247 53.14 14.2203 53.14 13.0603C53.14 11.9003 53.3133 10.8737 53.66 9.98033C54.02 9.087 54.5067 8.33367 55.12 7.72034C55.7333 7.09367 56.4533 6.62034 57.28 6.30033C58.1067 5.98033 58.9933 5.82033 59.94 5.82033C60.5133 5.82033 61.0333 5.867 61.5 5.96034C61.9667 6.04034 62.3733 6.13367 62.72 6.24034C63.0667 6.347 63.3533 6.46034 63.58 6.58034C63.8067 6.70033 63.9667 6.787 64.06 6.84033L63.32 8.90034C63 8.70033 62.54 8.51367 61.94 8.34034C61.3533 8.15367 60.7133 8.06034 60.02 8.06034C59.42 8.06034 58.86 8.167 58.34 8.38034C57.82 8.58033 57.3667 8.887 56.98 9.30034C56.6067 9.71367 56.3133 10.2337 56.1 10.8603C55.8867 11.487 55.78 12.2137 55.78 13.0403C55.78 13.7737 55.86 14.447 56.02 15.0603C56.1933 15.6737 56.4533 16.207 56.8 16.6603C57.1467 17.1003 57.5867 17.447 58.12 17.7003C58.6533 17.9403 59.2933 18.0603 60.04 18.0603C60.9333 18.0603 61.66 17.9737 62.22 17.8003C62.78 17.6137 63.2133 17.4403 63.52 17.2803L64.2 19.3403C64.04 19.447 63.82 19.5537 63.54 19.6603C63.2733 19.767 62.9533 19.8737 62.58 19.9803C62.2067 20.0737 61.7867 20.147 61.32 20.2003C60.8533 20.267 60.3533 20.3003 59.82 20.3003ZM70.2539 20.2003C69.8672 20.2003 69.4739 20.187 69.0739 20.1603C68.6739 20.1337 68.2872 20.1003 67.9139 20.0603C67.5539 20.0203 67.2139 19.9803 66.8939 19.9403C66.5739 19.887 66.3072 19.8337 66.0939 19.7803V9.68034C66.3072 9.627 66.5739 9.58034 66.8939 9.54034C67.2139 9.487 67.5539 9.447 67.9139 9.42033C68.2872 9.38034 68.6739 9.35367 69.0739 9.34033C69.4739 9.31367 69.8672 9.30034 70.2539 9.30034C71.6672 9.30034 72.7672 9.56034 73.5539 10.0803C74.3406 10.587 74.7339 11.3003 74.7339 12.2203C74.7339 12.7003 74.6139 13.127 74.3739 13.5003C74.1339 13.8737 73.8206 14.1537 73.4339 14.3403C73.9139 14.527 74.3272 14.8203 74.6739 15.2203C75.0206 15.6203 75.1939 16.187 75.1939 16.9203C75.1939 17.9737 74.7806 18.787 73.9539 19.3603C73.1272 19.9203 71.8939 20.2003 70.2539 20.2003ZM70.3139 13.7403C70.9139 13.7403 71.4072 13.6537 71.7939 13.4803C72.1939 13.307 72.3939 12.9603 72.3939 12.4403C72.3939 12.187 72.3272 11.9803 72.1939 11.8203C72.0739 11.6603 71.9072 11.5337 71.6939 11.4403C71.4806 11.347 71.2339 11.287 70.9539 11.2603C70.6739 11.2203 70.3806 11.2003 70.0739 11.2003C69.8339 11.2003 69.5539 11.207 69.2339 11.2203C68.9272 11.2337 68.6806 11.2537 68.4939 11.2803V13.7403H70.3139ZM68.4939 18.2003C68.6539 18.227 68.9139 18.2537 69.2739 18.2803C69.6472 18.2937 69.9939 18.3003 70.3139 18.3003C71.0339 18.3003 71.6272 18.2003 72.0939 18.0003C72.5739 17.8003 72.8139 17.4203 72.8139 16.8603C72.8139 16.3137 72.5939 15.9403 72.1539 15.7403C71.7272 15.527 71.1672 15.4203 70.4739 15.4203H68.4939V18.2003ZM86.7406 14.7603C86.7406 15.587 86.6206 16.3403 86.3806 17.0203C86.1406 17.7003 85.8006 18.2803 85.3606 18.7603C84.9206 19.2403 84.3873 19.6137 83.7606 19.8803C83.1473 20.147 82.4673 20.2803 81.7206 20.2803C80.974 20.2803 80.294 20.147 79.6806 19.8803C79.0673 19.6137 78.5406 19.2403 78.1006 18.7603C77.6606 18.2803 77.314 17.7003 77.0606 17.0203C76.8206 16.3403 76.7006 15.587 76.7006 14.7603C76.7006 13.9337 76.8206 13.187 77.0606 12.5203C77.314 11.8403 77.6606 11.2603 78.1006 10.7803C78.554 10.3003 79.0873 9.93367 79.7006 9.68034C80.314 9.41367 80.9873 9.28034 81.7206 9.28034C82.454 9.28034 83.1273 9.41367 83.7406 9.68034C84.3673 9.93367 84.9006 10.3003 85.3406 10.7803C85.7806 11.2603 86.1206 11.8403 86.3606 12.5203C86.614 13.187 86.7406 13.9337 86.7406 14.7603ZM84.2606 14.7603C84.2606 13.7203 84.034 12.9003 83.5806 12.3003C83.1406 11.687 82.5206 11.3803 81.7206 11.3803C80.9206 11.3803 80.294 11.687 79.8406 12.3003C79.4006 12.9003 79.1806 13.7203 79.1806 14.7603C79.1806 15.8137 79.4006 16.647 79.8406 17.2603C80.294 17.8737 80.9206 18.1803 81.7206 18.1803C82.5206 18.1803 83.1406 17.8737 83.5806 17.2603C84.034 16.647 84.2606 15.8137 84.2606 14.7603ZM88.4538 14.8203C88.4538 13.9003 88.5871 13.0937 88.8538 12.4003C89.1338 11.707 89.5004 11.1337 89.9538 10.6803C90.4071 10.2137 90.9271 9.867 91.5138 9.64034C92.1004 9.40034 92.7004 9.28034 93.3138 9.28034C94.7538 9.28034 95.8738 9.727 96.6738 10.6203C97.4871 11.5137 97.8938 12.847 97.8938 14.6203C97.8938 14.7537 97.8871 14.907 97.8738 15.0803C97.8738 15.2403 97.8671 15.387 97.8538 15.5203H90.9538C91.0204 16.3603 91.3138 17.0137 91.8338 17.4803C92.3671 17.9337 93.1338 18.1603 94.1338 18.1603C94.7204 18.1603 95.2538 18.107 95.7338 18.0003C96.2271 17.8937 96.6138 17.7803 96.8938 17.6603L97.2138 19.6403C97.0804 19.707 96.8938 19.7803 96.6538 19.8603C96.4271 19.927 96.1604 19.987 95.8538 20.0403C95.5604 20.107 95.2404 20.1603 94.8938 20.2003C94.5471 20.2403 94.1938 20.2603 93.8338 20.2603C92.9138 20.2603 92.1138 20.127 91.4338 19.8603C90.7538 19.5803 90.1938 19.2003 89.7538 18.7203C89.3138 18.227 88.9871 17.6537 88.7738 17.0003C88.5604 16.3337 88.4538 15.607 88.4538 14.8203ZM95.4738 13.7403C95.4738 13.407 95.4271 13.0937 95.3338 12.8003C95.2404 12.4937 95.1004 12.2337 94.9138 12.0203C94.7404 11.7937 94.5204 11.6203 94.2538 11.5003C94.0004 11.367 93.6938 11.3003 93.3338 11.3003C92.9604 11.3003 92.6338 11.3737 92.3538 11.5203C92.0738 11.6537 91.8338 11.8337 91.6338 12.0603C91.4471 12.287 91.3004 12.547 91.1938 12.8403C91.0871 13.1337 91.0138 13.4337 90.9738 13.7403H95.4738ZM91.2338 7.82034C90.8738 7.82034 90.5604 7.70034 90.2938 7.46034C90.0271 7.22033 89.8938 6.89367 89.8938 6.48033C89.8938 6.067 90.0271 5.74034 90.2938 5.50034C90.5604 5.247 90.8738 5.12034 91.2338 5.12034C91.5938 5.12034 91.9071 5.247 92.1738 5.50034C92.4538 5.74034 92.5938 6.067 92.5938 6.48033C92.5938 6.89367 92.4538 7.22033 92.1738 7.46034C91.9071 7.70034 91.5938 7.82034 91.2338 7.82034ZM95.3738 7.82034C95.0138 7.82034 94.6938 7.70034 94.4138 7.46034C94.1471 7.22033 94.0138 6.89367 94.0138 6.48033C94.0138 6.067 94.1471 5.74034 94.4138 5.50034C94.6938 5.247 95.0138 5.12034 95.3738 5.12034C95.7338 5.12034 96.0471 5.247 96.3138 5.50034C96.5804 5.74034 96.7138 6.067 96.7138 6.48033C96.7138 6.89367 96.5804 7.22033 96.3138 7.46034C96.0471 7.70034 95.7338 7.82034 95.3738 7.82034Z" fill="white"/>
<path fill-rule="evenodd" clip-rule="evenodd" d="M107.5 23.5003C107.224 23.5003 107 23.2765 107 23.0003L107 4.00034C107 3.72419 107.224 3.50034 107.5 3.50034V3.50034C107.776 3.50034 108 3.72419 108 4.00034L108 23.0003C108 23.2765 107.776 23.5003 107.5 23.5003V23.5003Z" fill="white"/>
<path d="M121.3 6.02033C123.26 6.02033 124.72 6.39367 125.68 7.14034C126.64 7.887 127.12 8.947 127.12 10.3203C127.12 11.107 126.98 11.7803 126.7 12.3403C126.42 12.887 126.02 13.3337 125.5 13.6803C124.98 14.0137 124.34 14.2603 123.58 14.4203C122.833 14.567 121.987 14.6403 121.04 14.6403H119.16V20.0003H117.8V6.40034C118.28 6.267 118.84 6.17367 119.48 6.12034C120.133 6.05367 120.74 6.02033 121.3 6.02033ZM121.36 7.20033C120.853 7.20033 120.42 7.22033 120.06 7.26034C119.713 7.287 119.413 7.31367 119.16 7.34034V13.4603H120.88C121.613 13.4603 122.273 13.4203 122.86 13.3403C123.46 13.247 123.967 13.087 124.38 12.8603C124.807 12.6203 125.133 12.2937 125.36 11.8803C125.587 11.467 125.7 10.9403 125.7 10.3003C125.7 9.687 125.573 9.18034 125.32 8.78033C125.08 8.38034 124.753 8.067 124.34 7.84033C123.94 7.60033 123.48 7.43367 122.96 7.34034C122.44 7.247 121.907 7.20033 121.36 7.20033ZM137.981 14.8403C137.981 15.6537 137.861 16.3937 137.621 17.0603C137.394 17.727 137.067 18.2937 136.641 18.7603C136.227 19.227 135.734 19.5937 135.161 19.8603C134.587 20.1137 133.954 20.2403 133.261 20.2403C132.567 20.2403 131.934 20.1137 131.361 19.8603C130.787 19.5937 130.287 19.227 129.861 18.7603C129.447 18.2937 129.121 17.727 128.881 17.0603C128.654 16.3937 128.541 15.6537 128.541 14.8403C128.541 14.027 128.654 13.287 128.881 12.6203C129.121 11.9537 129.447 11.387 129.861 10.9203C130.287 10.4403 130.787 10.0737 131.361 9.82034C131.934 9.55367 132.567 9.42033 133.261 9.42033C133.954 9.42033 134.587 9.55367 135.161 9.82034C135.734 10.0737 136.227 10.4403 136.641 10.9203C137.067 11.387 137.394 11.9537 137.621 12.6203C137.861 13.287 137.981 14.027 137.981 14.8403ZM136.601 14.8403C136.601 13.547 136.301 12.5203 135.701 11.7603C135.101 10.987 134.287 10.6003 133.261 10.6003C132.234 10.6003 131.421 10.987 130.821 11.7603C130.221 12.5203 129.921 13.547 129.921 14.8403C129.921 16.1337 130.221 17.1603 130.821 17.9203C131.421 18.6803 132.234 19.0603 133.261 19.0603C134.287 19.0603 135.101 18.6803 135.701 17.9203C136.301 17.1603 136.601 16.1337 136.601 14.8403ZM148.561 18.9003H149.741V22.8603H148.481V20.0003H140.441V22.8603H139.181V18.9003H140.241C140.681 18.207 141.028 17.5403 141.281 16.9003C141.548 16.2603 141.748 15.607 141.881 14.9403C142.028 14.2737 142.121 13.5737 142.161 12.8403C142.215 12.0937 142.241 11.2803 142.241 10.4003V9.66034H148.561V18.9003ZM143.461 10.7603C143.461 11.4803 143.435 12.187 143.381 12.8803C143.341 13.5737 143.255 14.2603 143.121 14.9403C142.988 15.6203 142.801 16.2937 142.561 16.9603C142.321 17.6137 142.008 18.2603 141.621 18.9003H147.261V10.7603H143.461ZM160.106 20.0003H158.806V15.1803H153.186V20.0003H151.886V9.66034H153.186V14.0803H158.806V9.66034H160.106V20.0003ZM172.166 14.8403C172.166 15.6537 172.046 16.3937 171.806 17.0603C171.579 17.727 171.252 18.2937 170.826 18.7603C170.412 19.227 169.919 19.5937 169.346 19.8603C168.772 20.1137 168.139 20.2403 167.446 20.2403C166.752 20.2403 166.119 20.1137 165.546 19.8603C164.972 19.5937 164.472 19.227 164.046 18.7603C163.632 18.2937 163.306 17.727 163.066 17.0603C162.839 16.3937 162.726 15.6537 162.726 14.8403C162.726 14.027 162.839 13.287 163.066 12.6203C163.306 11.9537 163.632 11.387 164.046 10.9203C164.472 10.4403 164.972 10.0737 165.546 9.82034C166.119 9.55367 166.752 9.42033 167.446 9.42033C168.139 9.42033 168.772 9.55367 169.346 9.82034C169.919 10.0737 170.412 10.4403 170.826 10.9203C171.252 11.387 171.579 11.9537 171.806 12.6203C172.046 13.287 172.166 14.027 172.166 14.8403ZM170.786 14.8403C170.786 13.547 170.486 12.5203 169.886 11.7603C169.286 10.987 168.472 10.6003 167.446 10.6003C166.419 10.6003 165.606 10.987 165.006 11.7603C164.406 12.5203 164.106 13.547 164.106 14.8403C164.106 16.1337 164.406 17.1603 165.006 17.9203C165.606 18.6803 166.419 19.0603 167.446 19.0603C168.472 19.0603 169.286 18.6803 169.886 17.9203C170.486 17.1603 170.786 16.1337 170.786 14.8403ZM174.166 14.8203C174.166 13.9137 174.293 13.127 174.546 12.4603C174.813 11.7803 175.153 11.2137 175.566 10.7603C175.993 10.307 176.473 9.97367 177.006 9.76034C177.553 9.53367 178.113 9.42033 178.686 9.42033C179.953 9.42033 180.96 9.83367 181.706 10.6603C182.466 11.487 182.846 12.7603 182.846 14.4803C182.846 14.587 182.84 14.6937 182.826 14.8003C182.826 14.907 182.82 15.007 182.806 15.1003H175.546C175.586 16.367 175.9 17.3403 176.486 18.0203C177.073 18.7003 178.006 19.0403 179.286 19.0403C179.993 19.0403 180.553 18.9737 180.966 18.8403C181.38 18.707 181.68 18.5937 181.866 18.5003L182.106 19.6203C181.92 19.727 181.566 19.8537 181.046 20.0003C180.54 20.147 179.94 20.2203 179.246 20.2203C178.34 20.2203 177.566 20.087 176.926 19.8203C176.286 19.5537 175.76 19.1803 175.346 18.7003C174.933 18.2203 174.633 17.6537 174.446 17.0003C174.26 16.3337 174.166 15.607 174.166 14.8203ZM181.506 14.0003C181.48 12.9203 181.226 12.0803 180.746 11.4803C180.266 10.8803 179.586 10.5803 178.706 10.5803C178.24 10.5803 177.82 10.6737 177.446 10.8603C177.086 11.047 176.766 11.3003 176.486 11.6203C176.22 11.927 176.006 12.287 175.846 12.7003C175.7 13.1137 175.613 13.547 175.586 14.0003H181.506Z" fill="white"/>
</g>
<path opacity="0.6" d="M58.4168 34.1423C58.4168 34.5143 58.3628 34.8533 58.2548 35.1593C58.1468 35.4653 57.9938 35.7263 57.7958 35.9423C57.5978 36.1583 57.3578 36.3263 57.0758 36.4463C56.7998 36.5663 56.4938 36.6263 56.1578 36.6263C55.8218 36.6263 55.5158 36.5663 55.2398 36.4463C54.9638 36.3263 54.7268 36.1583 54.5288 35.9423C54.3308 35.7263 54.1748 35.4653 54.0608 35.1593C53.9528 34.8533 53.8988 34.5143 53.8988 34.1423C53.8988 33.7703 53.9528 33.4343 54.0608 33.1343C54.1748 32.8283 54.3308 32.5673 54.5288 32.3513C54.7328 32.1353 54.9728 31.9703 55.2488 31.8563C55.5248 31.7363 55.8278 31.6763 56.1578 31.6763C56.4878 31.6763 56.7908 31.7363 57.0668 31.8563C57.3488 31.9703 57.5888 32.1353 57.7868 32.3513C57.9848 32.5673 58.1378 32.8283 58.2458 33.1343C58.3598 33.4343 58.4168 33.7703 58.4168 34.1423ZM57.3008 34.1423C57.3008 33.6743 57.1988 33.3053 56.9948 33.0353C56.7968 32.7593 56.5178 32.6213 56.1578 32.6213C55.7978 32.6213 55.5158 32.7593 55.3118 33.0353C55.1138 33.3053 55.0148 33.6743 55.0148 34.1423C55.0148 34.6163 55.1138 34.9913 55.3118 35.2673C55.5158 35.5433 55.7978 35.6813 56.1578 35.6813C56.5178 35.6813 56.7968 35.5433 56.9948 35.2673C57.1988 34.9913 57.3008 34.6163 57.3008 34.1423ZM64.0847 32.7023H62.5637V36.5003H61.4747V32.7023H59.9627V31.7933H64.0847V32.7023ZM70.8167 30.2003C71.7227 30.2003 72.4157 30.3653 72.8957 30.6953C73.3817 31.0253 73.6247 31.5413 73.6247 32.2433C73.6247 32.6093 73.5587 32.9243 73.4267 33.1883C73.3007 33.4463 73.1147 33.6593 72.8687 33.8273C72.6227 33.9893 72.3227 34.1093 71.9687 34.1873C71.6147 34.2653 71.2097 34.3043 70.7537 34.3043H70.1867V36.5003H69.0527V30.3533C69.3167 30.2933 69.6077 30.2543 69.9257 30.2363C70.2497 30.2123 70.5467 30.2003 70.8167 30.2003ZM70.8977 31.1813C70.6097 31.1813 70.3727 31.1903 70.1867 31.2083V33.3323H70.7357C71.2817 33.3323 71.7017 33.2573 71.9957 33.1073C72.2897 32.9513 72.4367 32.6603 72.4367 32.2343C72.4367 32.0303 72.3977 31.8593 72.3197 31.7213C72.2417 31.5833 72.1337 31.4753 71.9957 31.3973C71.8577 31.3193 71.6927 31.2653 71.5007 31.2353C71.3147 31.1993 71.1137 31.1813 70.8977 31.1813ZM79.8631 34.1423C79.8631 34.5143 79.8091 34.8533 79.7011 35.1593C79.5931 35.4653 79.4401 35.7263 79.2421 35.9423C79.0441 36.1583 78.8041 36.3263 78.5221 36.4463C78.2461 36.5663 77.9401 36.6263 77.6041 36.6263C77.2681 36.6263 76.9621 36.5663 76.6861 36.4463C76.4101 36.3263 76.1731 36.1583 75.9751 35.9423C75.7771 35.7263 75.6211 35.4653 75.5071 35.1593C75.3991 34.8533 75.3451 34.5143 75.3451 34.1423C75.3451 33.7703 75.3991 33.4343 75.5071 33.1343C75.6211 32.8283 75.7771 32.5673 75.9751 32.3513C76.1791 32.1353 76.4191 31.9703 76.6951 31.8563C76.9711 31.7363 77.2741 31.6763 77.6041 31.6763C77.9341 31.6763 78.2371 31.7363 78.5131 31.8563C78.7951 31.9703 79.0351 32.1353 79.2331 32.3513C79.4311 32.5673 79.5841 32.8283 79.6921 33.1343C79.8061 33.4343 79.8631 33.7703 79.8631 34.1423ZM78.7471 34.1423C78.7471 33.6743 78.6451 33.3053 78.4411 33.0353C78.2431 32.7593 77.9641 32.6213 77.6041 32.6213C77.2441 32.6213 76.9621 32.7593 76.7581 33.0353C76.5601 33.3053 76.4611 33.6743 76.4611 34.1423C76.4611 34.6163 76.5601 34.9913 76.7581 35.2673C76.9621 35.5433 77.2441 35.6813 77.6041 35.6813C77.9641 35.6813 78.2431 35.5433 78.4411 35.2673C78.6451 34.9913 78.7471 34.6163 78.7471 34.1423ZM81.724 34.1513C81.724 33.8033 81.778 33.4793 81.886 33.1793C81.994 32.8733 82.147 32.6093 82.345 32.3873C82.549 32.1653 82.795 31.9913 83.083 31.8653C83.371 31.7393 83.695 31.6763 84.055 31.6763C84.499 31.6763 84.919 31.7573 85.315 31.9193L85.081 32.8103C84.955 32.7563 84.811 32.7113 84.649 32.6753C84.493 32.6393 84.325 32.6213 84.145 32.6213C83.719 32.6213 83.395 32.7563 83.173 33.0263C82.951 33.2903 82.84 33.6653 82.84 34.1513C82.84 34.6193 82.945 34.9913 83.155 35.2673C83.365 35.5373 83.719 35.6723 84.217 35.6723C84.403 35.6723 84.586 35.6543 84.766 35.6183C84.946 35.5823 85.102 35.5373 85.234 35.4833L85.387 36.3833C85.267 36.4433 85.084 36.4973 84.838 36.5453C84.598 36.5933 84.349 36.6173 84.091 36.6173C83.689 36.6173 83.338 36.5573 83.038 36.4373C82.744 36.3113 82.498 36.1403 82.3 35.9243C82.108 35.7023 81.964 35.4413 81.868 35.1413C81.772 34.8353 81.724 34.5053 81.724 34.1513ZM86.9691 34.1513C86.9691 33.8033 87.0231 33.4793 87.1311 33.1793C87.2391 32.8733 87.3921 32.6093 87.5901 32.3873C87.7941 32.1653 88.0401 31.9913 88.3281 31.8653C88.6161 31.7393 88.9401 31.6763 89.3001 31.6763C89.7441 31.6763 90.1641 31.7573 90.5601 31.9193L90.3261 32.8103C90.2001 32.7563 90.0561 32.7113 89.8941 32.6753C89.7381 32.6393 89.5701 32.6213 89.3901 32.6213C88.9641 32.6213 88.6401 32.7563 88.4181 33.0263C88.1961 33.2903 88.0851 33.6653 88.0851 34.1513C88.0851 34.6193 88.1901 34.9913 88.4001 35.2673C88.6101 35.5373 88.9641 35.6723 89.4621 35.6723C89.6481 35.6723 89.8311 35.6543 90.0111 35.6183C90.1911 35.5823 90.3471 35.5373 90.4791 35.4833L90.6321 36.3833C90.5121 36.4433 90.3291 36.4973 90.0831 36.5453C89.8431 36.5933 89.5941 36.6173 89.3361 36.6173C88.9341 36.6173 88.5831 36.5573 88.2831 36.4373C87.9891 36.3113 87.7431 36.1403 87.5451 35.9243C87.3531 35.7023 87.2091 35.4413 87.1131 35.1413C87.0171 34.8353 86.9691 34.5053 86.9691 34.1513ZM92.2142 34.1693C92.2142 33.7553 92.2742 33.3923 92.3942 33.0803C92.5202 32.7683 92.6852 32.5103 92.8892 32.3063C93.0932 32.0963 93.3272 31.9403 93.5912 31.8383C93.8552 31.7303 94.1252 31.6763 94.4012 31.6763C95.0492 31.6763 95.5532 31.8773 95.9132 32.2793C96.2792 32.6813 96.4622 33.2813 96.4622 34.0793C96.4622 34.1393 96.4592 34.2083 96.4532 34.2863C96.4532 34.3583 96.4502 34.4243 96.4442 34.4843H93.3392C93.3692 34.8623 93.5012 35.1563 93.7352 35.3663C93.9752 35.5703 94.3202 35.6723 94.7702 35.6723C95.0342 35.6723 95.2742 35.6483 95.4902 35.6003C95.7122 35.5523 95.8862 35.5013 96.0122 35.4473L96.1562 36.3383C96.0962 36.3683 96.0122 36.4013 95.9042 36.4373C95.8022 36.4673 95.6822 36.4943 95.5442 36.5183C95.4122 36.5483 95.2682 36.5723 95.1122 36.5903C94.9562 36.6083 94.7972 36.6173 94.6352 36.6173C94.2212 36.6173 93.8612 36.5573 93.5552 36.4373C93.2492 36.3113 92.9972 36.1403 92.7992 35.9243C92.6012 35.7023 92.4542 35.4443 92.3582 35.1503C92.2622 34.8503 92.2142 34.5233 92.2142 34.1693ZM95.3732 33.6833C95.3732 33.5333 95.3522 33.3923 95.3102 33.2603C95.2682 33.1223 95.2052 33.0053 95.1212 32.9093C95.0432 32.8073 94.9442 32.7293 94.8242 32.6753C94.7102 32.6153 94.5722 32.5853 94.4102 32.5853C94.2422 32.5853 94.0952 32.6183 93.9692 32.6843C93.8432 32.7443 93.7352 32.8253 93.6452 32.9273C93.5612 33.0293 93.4952 33.1463 93.4472 33.2783C93.3992 33.4103 93.3662 33.5453 93.3482 33.6833H95.3732ZM100.462 32.6933C100.456 32.9573 100.447 33.2333 100.435 33.5213C100.423 33.8033 100.393 34.0823 100.345 34.3583C100.303 34.6343 100.234 34.8983 100.138 35.1503C100.042 35.4023 99.9068 35.6303 99.7328 35.8343C99.5648 36.0323 99.3518 36.2003 99.0938 36.3383C98.8418 36.4703 98.5328 36.5543 98.1668 36.5903L98.0138 35.6813C98.3198 35.6213 98.5568 35.5253 98.7248 35.3933C98.8928 35.2553 99.0218 35.0813 99.1118 34.8713C99.1838 34.7153 99.2378 34.5383 99.2738 34.3403C99.3158 34.1423 99.3458 33.9353 99.3638 33.7193C99.3878 33.4973 99.4028 33.2723 99.4088 33.0443C99.4148 32.8163 99.4178 32.5943 99.4178 32.3783V31.7933H102.748V36.5003H101.659V32.6933H100.462ZM106.225 33.5303C106.315 33.5063 106.447 33.4853 106.621 33.4673C106.795 33.4493 106.969 33.4403 107.143 33.4403C107.413 33.4403 107.665 33.4703 107.899 33.5303C108.139 33.5903 108.346 33.6863 108.52 33.8183C108.694 33.9443 108.832 34.1093 108.934 34.3133C109.036 34.5113 109.087 34.7483 109.087 35.0243C109.087 35.3063 109.039 35.5463 108.943 35.7443C108.847 35.9423 108.709 36.1043 108.529 36.2303C108.349 36.3563 108.133 36.4493 107.881 36.5093C107.635 36.5693 107.359 36.5993 107.053 36.5993C106.699 36.5993 106.369 36.5813 106.063 36.5453C105.757 36.5093 105.448 36.4553 105.136 36.3833V31.7933H106.225V33.5303ZM107.026 35.7443C107.332 35.7443 107.569 35.6873 107.737 35.5733C107.911 35.4533 107.998 35.2643 107.998 35.0063C107.998 34.8743 107.968 34.7633 107.908 34.6733C107.854 34.5833 107.779 34.5113 107.683 34.4573C107.593 34.3973 107.485 34.3553 107.359 34.3313C107.233 34.3073 107.101 34.2953 106.963 34.2953C106.837 34.2953 106.705 34.3013 106.567 34.3133C106.429 34.3193 106.315 34.3343 106.225 34.3583V35.6993C106.303 35.7113 106.417 35.7233 106.567 35.7353C106.723 35.7413 106.876 35.7443 107.026 35.7443ZM112.768 33.3323L113.767 31.7933H114.91L113.362 34.0163C113.686 34.4363 113.995 34.8623 114.289 35.2943C114.589 35.7203 114.835 36.1223 115.027 36.5003H113.848C113.794 36.3863 113.722 36.2573 113.632 36.1133C113.548 35.9633 113.455 35.8103 113.353 35.6543C113.257 35.4923 113.155 35.3333 113.047 35.1773C112.939 35.0213 112.834 34.8743 112.732 34.7363C112.522 35.0063 112.315 35.3063 112.111 35.6363C111.913 35.9603 111.748 36.2483 111.616 36.5003H110.5C110.59 36.3203 110.698 36.1283 110.824 35.9243C110.95 35.7203 111.085 35.5133 111.229 35.3033C111.373 35.0873 111.52 34.8743 111.67 34.6643C111.826 34.4483 111.979 34.2443 112.129 34.0523L110.572 31.7933H111.769L112.768 33.3323ZM120.938 34.1423C120.938 34.5143 120.884 34.8533 120.776 35.1593C120.668 35.4653 120.515 35.7263 120.317 35.9423C120.119 36.1583 119.879 36.3263 119.597 36.4463C119.321 36.5663 119.015 36.6263 118.679 36.6263C118.343 36.6263 118.037 36.5663 117.761 36.4463C117.485 36.3263 117.248 36.1583 117.05 35.9423C116.852 35.7263 116.696 35.4653 116.582 35.1593C116.474 34.8533 116.42 34.5143 116.42 34.1423C116.42 33.7703 116.474 33.4343 116.582 33.1343C116.696 32.8283 116.852 32.5673 117.05 32.3513C117.254 32.1353 117.494 31.9703 117.77 31.8563C118.046 31.7363 118.349 31.6763 118.679 31.6763C119.009 31.6763 119.312 31.7363 119.588 31.8563C119.87 31.9703 120.11 32.1353 120.308 32.3513C120.506 32.5673 120.659 32.8283 120.767 33.1343C120.881 33.4343 120.938 33.7703 120.938 34.1423ZM119.822 34.1423C119.822 33.6743 119.72 33.3053 119.516 33.0353C119.318 32.7593 119.039 32.6213 118.679 32.6213C118.319 32.6213 118.037 32.7593 117.833 33.0353C117.635 33.3053 117.536 33.6743 117.536 34.1423C117.536 34.6163 117.635 34.9913 117.833 35.2673C118.037 35.5433 118.319 35.6813 118.679 35.6813C119.039 35.6813 119.318 35.5433 119.516 35.2673C119.72 34.9913 119.822 34.6163 119.822 34.1423ZM122.721 31.9373C122.799 31.9073 122.895 31.8773 123.009 31.8473C123.123 31.8173 123.246 31.7903 123.378 31.7663C123.51 31.7423 123.648 31.7243 123.792 31.7123C123.942 31.6943 124.092 31.6853 124.242 31.6853C124.5 31.6853 124.746 31.7093 124.98 31.7573C125.214 31.8053 125.418 31.8833 125.592 31.9913C125.766 32.0993 125.904 32.2373 126.006 32.4053C126.114 32.5733 126.168 32.7743 126.168 33.0083C126.168 33.2603 126.099 33.4733 125.961 33.6473C125.823 33.8213 125.664 33.9503 125.484 34.0343C125.754 34.1363 125.961 34.2863 126.105 34.4843C126.249 34.6823 126.321 34.9343 126.321 35.2403C126.321 35.4863 126.267 35.6963 126.159 35.8703C126.057 36.0443 125.913 36.1883 125.727 36.3023C125.547 36.4103 125.334 36.4883 125.088 36.5363C124.842 36.5903 124.575 36.6173 124.287 36.6173C123.939 36.6173 123.615 36.5873 123.315 36.5273C123.015 36.4733 122.778 36.4073 122.604 36.3293L122.793 35.4473C122.907 35.4953 123.09 35.5523 123.342 35.6183C123.594 35.6783 123.891 35.7083 124.233 35.7083C124.893 35.7083 125.223 35.5163 125.223 35.1323C125.223 34.9943 125.193 34.8833 125.133 34.7993C125.073 34.7153 124.998 34.6523 124.908 34.6103C124.818 34.5623 124.716 34.5323 124.602 34.5203C124.488 34.5023 124.377 34.4933 124.269 34.4933H123.369V33.6833H124.26C124.482 33.6833 124.671 33.6443 124.827 33.5663C124.989 33.4823 125.07 33.3383 125.07 33.1343C125.07 32.9663 124.992 32.8343 124.836 32.7383C124.686 32.6363 124.473 32.5853 124.197 32.5853C124.077 32.5853 123.954 32.5943 123.828 32.6123C123.702 32.6243 123.579 32.6423 123.459 32.6663C123.345 32.6903 123.24 32.7173 123.144 32.7473C123.048 32.7713 122.973 32.7953 122.919 32.8193L122.721 31.9373ZM132.469 30.4703C132.409 30.4823 132.343 30.4943 132.271 30.5063C132.205 30.5183 132.124 30.5303 132.028 30.5423C131.932 30.5543 131.818 30.5693 131.686 30.5873C131.56 30.5993 131.413 30.6143 131.245 30.6323C130.987 30.6623 130.756 30.7133 130.552 30.7853C130.348 30.8513 130.171 30.9503 130.021 31.0823C129.871 31.2083 129.748 31.3703 129.652 31.5683C129.556 31.7663 129.487 32.0063 129.445 32.2883C129.631 32.1683 129.832 32.0753 130.048 32.0093C130.27 31.9433 130.486 31.9103 130.696 31.9103C131.32 31.9103 131.815 32.1083 132.181 32.5043C132.547 32.9003 132.73 33.4733 132.73 34.2233C132.73 34.5833 132.679 34.9103 132.577 35.2043C132.475 35.4983 132.328 35.7503 132.136 35.9603C131.944 36.1703 131.713 36.3353 131.443 36.4553C131.173 36.5693 130.867 36.6263 130.525 36.6263C130.099 36.6263 129.742 36.5573 129.454 36.4193C129.166 36.2753 128.935 36.0743 128.761 35.8163C128.587 35.5523 128.461 35.2373 128.383 34.8713C128.305 34.5053 128.266 34.0973 128.266 33.6473C128.266 33.0593 128.314 32.5403 128.41 32.0903C128.512 31.6343 128.674 31.2443 128.896 30.9203C129.124 30.5963 129.418 30.3353 129.778 30.1373C130.144 29.9333 130.588 29.7923 131.11 29.7143C131.38 29.6723 131.605 29.6393 131.785 29.6153C131.971 29.5913 132.157 29.5583 132.343 29.5163L132.469 30.4703ZM129.409 33.2423C129.397 33.3203 129.391 33.4163 129.391 33.5303C129.391 33.6383 129.391 33.7403 129.391 33.8363C129.391 34.1063 129.409 34.3553 129.445 34.5833C129.481 34.8113 129.544 35.0063 129.634 35.1683C129.724 35.3303 129.841 35.4563 129.985 35.5463C130.129 35.6363 130.309 35.6813 130.525 35.6813C130.711 35.6813 130.873 35.6453 131.011 35.5733C131.149 35.5013 131.263 35.3993 131.353 35.2673C131.443 35.1353 131.509 34.9823 131.551 34.8083C131.599 34.6283 131.623 34.4333 131.623 34.2233C131.623 34.0433 131.602 33.8723 131.56 33.7103C131.524 33.5423 131.461 33.3953 131.371 33.2693C131.287 33.1373 131.173 33.0323 131.029 32.9543C130.885 32.8763 130.708 32.8373 130.498 32.8373C130.294 32.8373 130.09 32.8733 129.886 32.9453C129.688 33.0173 129.529 33.1163 129.409 33.2423ZM136.516 35.7353C136.852 35.7353 137.107 35.7173 137.281 35.6813V34.4753C137.221 34.4573 137.134 34.4393 137.02 34.4213C136.906 34.4033 136.78 34.3943 136.642 34.3943C136.522 34.3943 136.399 34.4033 136.273 34.4213C136.153 34.4393 136.042 34.4723 135.94 34.5203C135.844 34.5683 135.766 34.6373 135.706 34.7273C135.646 34.8113 135.616 34.9193 135.616 35.0513C135.616 35.3093 135.697 35.4893 135.859 35.5913C136.021 35.6873 136.24 35.7353 136.516 35.7353ZM136.426 31.6763C136.786 31.6763 137.089 31.7213 137.335 31.8113C137.581 31.9013 137.776 32.0273 137.92 32.1893C138.07 32.3513 138.175 32.5493 138.235 32.7833C138.301 33.0113 138.334 33.2633 138.334 33.5393V36.3923C138.166 36.4283 137.911 36.4703 137.569 36.5183C137.233 36.5723 136.852 36.5993 136.426 36.5993C136.144 36.5993 135.886 36.5723 135.652 36.5183C135.418 36.4643 135.217 36.3773 135.049 36.2573C134.887 36.1373 134.758 35.9813 134.662 35.7893C134.572 35.5973 134.527 35.3603 134.527 35.0783C134.527 34.8083 134.578 34.5803 134.68 34.3943C134.788 34.2083 134.932 34.0583 135.112 33.9443C135.292 33.8243 135.499 33.7403 135.733 33.6923C135.973 33.6383 136.222 33.6113 136.48 33.6113C136.6 33.6113 136.726 33.6203 136.858 33.6383C136.99 33.6503 137.131 33.6743 137.281 33.7103V33.5303C137.281 33.4043 137.266 33.2843 137.236 33.1703C137.206 33.0563 137.152 32.9573 137.074 32.8733C137.002 32.7833 136.903 32.7143 136.777 32.6663C136.657 32.6183 136.504 32.5943 136.318 32.5943C136.066 32.5943 135.835 32.6123 135.625 32.6483C135.415 32.6843 135.244 32.7263 135.112 32.7743L134.977 31.8923C135.115 31.8443 135.316 31.7963 135.58 31.7483C135.844 31.7003 136.126 31.6763 136.426 31.6763ZM144.619 36.5003H143.53V34.5293H141.757V36.5003H140.668V31.7933H141.757V33.6293H143.53V31.7933H144.619V36.5003ZM148.092 33.6833C148.23 33.5453 148.38 33.3923 148.542 33.2243C148.704 33.0503 148.863 32.8763 149.019 32.7023C149.181 32.5283 149.334 32.3633 149.478 32.2073C149.622 32.0453 149.742 31.9073 149.838 31.7933H151.116C150.984 31.9493 150.831 32.1203 150.657 32.3063C150.489 32.4923 150.312 32.6843 150.126 32.8823C149.946 33.0743 149.766 33.2633 149.586 33.4493C149.412 33.6293 149.253 33.7913 149.109 33.9353C149.295 34.0913 149.487 34.2743 149.685 34.4843C149.889 34.6883 150.087 34.9073 150.279 35.1413C150.477 35.3693 150.66 35.6033 150.828 35.8433C150.996 36.0773 151.137 36.2963 151.251 36.5003H149.991C149.877 36.3203 149.742 36.1313 149.586 35.9333C149.436 35.7353 149.277 35.5433 149.109 35.3573C148.941 35.1653 148.77 34.9853 148.596 34.8173C148.422 34.6493 148.254 34.5053 148.092 34.3853V36.5003H147.003V31.7933H148.092V33.6833ZM154.695 35.7353C155.031 35.7353 155.286 35.7173 155.46 35.6813V34.4753C155.4 34.4573 155.313 34.4393 155.199 34.4213C155.085 34.4033 154.959 34.3943 154.821 34.3943C154.701 34.3943 154.578 34.4033 154.452 34.4213C154.332 34.4393 154.221 34.4723 154.119 34.5203C154.023 34.5683 153.945 34.6373 153.885 34.7273C153.825 34.8113 153.795 34.9193 153.795 35.0513C153.795 35.3093 153.876 35.4893 154.038 35.5913C154.2 35.6873 154.419 35.7353 154.695 35.7353ZM154.605 31.6763C154.965 31.6763 155.268 31.7213 155.514 31.8113C155.76 31.9013 155.955 32.0273 156.099 32.1893C156.249 32.3513 156.354 32.5493 156.414 32.7833C156.48 33.0113 156.513 33.2633 156.513 33.5393V36.3923C156.345 36.4283 156.09 36.4703 155.748 36.5183C155.412 36.5723 155.031 36.5993 154.605 36.5993C154.323 36.5993 154.065 36.5723 153.831 36.5183C153.597 36.4643 153.396 36.3773 153.228 36.2573C153.066 36.1373 152.937 35.9813 152.841 35.7893C152.751 35.5973 152.706 35.3603 152.706 35.0783C152.706 34.8083 152.757 34.5803 152.859 34.3943C152.967 34.2083 153.111 34.0583 153.291 33.9443C153.471 33.8243 153.678 33.7403 153.912 33.6923C154.152 33.6383 154.401 33.6113 154.659 33.6113C154.779 33.6113 154.905 33.6203 155.037 33.6383C155.169 33.6503 155.31 33.6743 155.46 33.7103V33.5303C155.46 33.4043 155.445 33.2843 155.415 33.1703C155.385 33.0563 155.331 32.9573 155.253 32.8733C155.181 32.7833 155.082 32.7143 154.956 32.6663C154.836 32.6183 154.683 32.5943 154.497 32.5943C154.245 32.5943 154.014 32.6123 153.804 32.6483C153.594 32.6843 153.423 32.7263 153.291 32.7743L153.156 31.8923C153.294 31.8443 153.495 31.7963 153.759 31.7483C154.023 31.7003 154.305 31.6763 154.605 31.6763Z" fill="#7D7E7F"/>
</g>
<defs>
<clipPath id="clip0_36101_96848">
<rect width="133" height="37" fill="white" transform="translate(52 1.50034)"/>
</clipPath>
<clipPath id="clip1_36101_96848">
<rect width="133" height="22" fill="white" transform="translate(52 1.50034)"/>
</clipPath>
</defs>
</svg>
