<svg width="24" height="24" viewBox="0 0 24 24" fill="none" xmlns="http://www.w3.org/2000/svg">
<g clip-path="url(#clip0_1421_26447)">
<path d="M5.52879 22.8996C5.52879 22.8996 14.4317 23.6382 17.4585 20.1642C20.4852 16.6903 22.8874 10.5452 21.8556 3.65552C21.8556 3.65552 20.9099 11.3456 14.3842 13.424C8.0346 15.4667 6.20305 19.1822 5.52879 22.8996Z" stroke="black" stroke-width="2" stroke-linecap="round" stroke-linejoin="round"/>
<path d="M17.0023 6.93637C18.905 6.06734 20.5966 5.07906 21.8556 3.65569" stroke="black" stroke-width="2" stroke-linecap="round" stroke-linejoin="round"/>
<path d="M5.52873 22.8995C5.52873 22.8995 2.25144 16.9313 5.34651 13.0669" stroke="black" stroke-width="2" stroke-linecap="round" stroke-linejoin="round"/>
<path d="M14.4106 3.88358C14.3393 4.47503 14.1523 5.04667 13.8601 5.56584C12.4248 8.34388 8.71564 11.2711 8.71564 11.2711C5.40772 8.46225 4.00324 6.53821 3.41677 5.36526C3.2547 5.05901 3.13034 4.73419 3.04638 4.39803C3.0152 4.22833 2.99972 4.05612 3.00009 3.88358C2.99705 3.50795 3.06803 3.13543 3.20896 2.78723C3.3499 2.43904 3.55805 2.12205 3.82151 1.85429C4.08496 1.58653 4.3986 1.37323 4.74447 1.22667C5.09034 1.08012 5.46167 1.00313 5.8373 1.00009C6.21292 0.997054 6.58545 1.06803 6.93365 1.20896C7.28184 1.3499 7.5989 1.55805 7.86665 1.82151C8.13441 2.08496 8.34765 2.39853 8.49421 2.7444C8.64076 3.09027 8.71774 3.46173 8.72078 3.83736C8.71829 3.85269 8.71829 3.86825 8.72078 3.88358C8.71825 3.90064 8.71825 3.91802 8.72078 3.93508V3.83736C8.75747 3.10027 9.07764 2.40579 9.61435 1.89925C10.1511 1.39271 10.8628 1.11331 11.6008 1.11929C12.3387 1.12526 13.0458 1.41624 13.5743 1.93141C14.1027 2.44657 14.4116 3.146 14.4363 3.88358H14.4106Z" stroke="black" stroke-width="2" stroke-linecap="round" stroke-linejoin="round"/>
</g>
<defs>
<clipPath id="clip0_1421_26447">
<rect width="24" height="24" fill="white"/>
</clipPath>
</defs>
</svg>
