<svg fill="none" height="28px" viewBox="0 0 32 32" width="28px" xmlns="http://www.w3.org/2000/svg">
  <path
    d="m0 16c0-8.83656 7.16344-16 16-16 8.8366 0 16 7.16344 16 16 0 8.8366-7.1634 16-16 16-8.83656 0-16-7.1634-16-16z"
    fill="#1c1c1c" />
  <path
    d="m17.5429 17.5429c-1.2572 1.2971-1.3486 2.9142-1.4572 6.4571 3.3029 0 5.5829-.0114 6.76-1.1543 1.1429-1.1771 1.1543-3.5657 1.1543-6.76-3.5429.1143-5.16.2-6.4571 1.4572zm-9.5429-1.4572c0 3.1943.01143 5.5829 1.15429 6.76 1.17711 1.1429 3.45711 1.1543 6.76001 1.1543-.1143-3.5429-.2-5.16-1.4572-6.4571-1.2971-1.2572-2.9142-1.3486-6.4571-1.4572zm7.9143-8.0857c-3.2972 0-5.5829.01143-6.76001 1.15429-1.14286 1.17711-1.15429 3.56571-1.15429 6.76001 3.5429-.1143 5.16-.2 6.4571-1.4572 1.2572-1.2971 1.3486-2.9142 1.4572-6.4571zm1.6286 6.4571c-1.2572-1.2971-1.3486-2.9142-1.4572-6.4571 3.3029 0 5.5829.01143 6.76 1.15429 1.1429 1.17711 1.1543 3.56571 1.1543 6.76001-3.5429-.1143-5.16-.2-6.4571-1.4572z"
    fill="#1c1c1c" />
  <path
    d="m24 16.0857v-.1714c-3.5429-.1143-5.16-.2-6.4571-1.4572-1.2572-1.2971-1.3486-2.9142-1.4572-6.4571h-.1714c-.1143 3.5429-.2 5.16-1.4572 6.4571-1.2971 1.2572-2.9142 1.3486-6.4571 1.4572v.1714c3.5429.1143 5.16.2 6.4571 1.4572 1.2572 1.2971 1.3486 2.9142 1.4572 6.4571h.1714c.1143-3.5429.2-5.16 1.4572-6.4571 1.2971-1.2572 2.9142-1.3486 6.4571-1.4572z"
    fill="#fff" />
</svg>